<?xml version="1.0" standalone="no"?>
<!DOCTYPE svg PUBLIC "-//W3C//DTD SVG 1.1//EN" "http://www.w3.org/Graphics/SVG/1.1/DTD/svg11.dtd" >
<!--
2013-9-30: Created.
-->
<svg>
<metadata>
Created by iconfont
</metadata>
<defs>

<font id="hui-iconfont" horiz-adv-x="1024" >
  <font-face
    font-family="hui-iconfont"
    font-weight="500"
    font-stretch="normal"
    units-per-em="1024"
    ascent="896"
    descent="-128"
  />
    <missing-glyph />
    
    <glyph glyph-name="x" unicode="x" horiz-adv-x="1001"
d="M281 543q-27 -1 -53 -1h-83q-18 0 -36.5 -6t-32.5 -18.5t-23 -32t-9 -45.5v-76h912v41q0 16 -0.5 30t-0.5 18q0 13 -5 29t-17 29.5t-31.5 22.5t-49.5 9h-133v-97h-438v97zM955 310v-52q0 -23 0.5 -52t0.5 -58t-10.5 -47.5t-26 -30t-33 -16t-31.5 -4.5q-14 -1 -29.5 -0.5
t-29.5 0.5h-32l-45 128h-439l-44 -128h-29h-34q-20 0 -45 1q-25 0 -41 9.5t-25.5 23t-13.5 29.5t-4 30v167h911zM163 247q-12 0 -21 -8.5t-9 -21.5t9 -21.5t21 -8.5q13 0 22 8.5t9 21.5t-9 21.5t-22 8.5zM316 123q-8 -26 -14 -48q-5 -19 -10.5 -37t-7.5 -25t-3 -15t1 -14.5
t9.5 -10.5t21.5 -4h37h67h81h80h64h36q23 0 34 12t2 38q-5 13 -9.5 30.5t-9.5 34.5q-5 19 -11 39h-368zM336 498v228q0 11 2.5 23t10 21.5t20.5 15.5t34 6h188q31 0 51.5 -14.5t20.5 -52.5v-227h-327z" />
    

    
    <glyph glyph-name="bianji" unicode="&#58880;" d="M570.0724 452.3187 232.708 114.8895l39.7647-39.757 337.3594 337.4292L570.0724 452.3187zM649.5899 372.8046 312.2314 35.3754l79.5234-79.5201 337.4154 337.4012L649.5899 372.8046zM530.3077 492.0808l-39.7587 39.757-337.4154-337.4012 39.7587-39.757L530.3077 492.0808zM935.606 579.2597 776.5591 738.3218c-21.966 21.9651-57.5514 21.9651-79.5174 0l-95.9949-96.0239 238.5583-238.6042 95.9999 96.0469C957.571 521.6767 957.571 557.2896 935.606 579.2597zM75.5899-121.6571h168.70770190159058L75.5899 47.0435V-121.65711647502997zM469.2416-121.6571h393.6516375585128V-65.42324304121803H469.241562366335V-121.65711647502997z"  horiz-adv-x="1000" />

    
    <glyph glyph-name="tupian" unicode="&#58912;" d="M993.77664-47.79136c0-29.577216-23.97696-53.552128-53.5552-53.552128L115.490816-101.343488c-29.577216 0-53.554176 23.974912-53.554176 53.552128L61.93664 680.545024c0 29.577216 23.97696 53.554176 53.554176 53.554176l824.730624 0c29.57824 0 53.5552-23.97696 53.5552-53.554176L993.77664-47.79136zM952.81664 655.334144c0 22.352896-18.11968 40.472576-40.472576 40.472576L143.369216 695.80672c-22.351872 0-40.472576-18.11968-40.472576-40.472576l0-677.911552c0-22.351872 18.120704-40.471552 40.472576-40.471552L912.34304-63.04896c22.352896 0 40.472576 18.11968 40.472576 40.471552L952.81664 655.334144 952.81664 655.334144zM295.236608 591.639296c-49.4848 0-89.6-40.1152-89.6-89.6 0-49.4848 40.1152-89.6 89.6-89.6s89.6 40.1152 89.6 89.6C384.836608 551.524096 344.721408 591.639296 295.236608 591.639296zM343.876608 502.039296c0-26.863616-21.778432-48.64-48.64-48.64-26.863616 0-48.64 21.776384-48.64 48.64 0 26.863616 21.776384 48.64 48.64 48.64C322.0992 550.679296 343.876608 528.902912 343.876608 502.039296zM167.40864 113.15072l172.544 130.048 93.696-96.256 232.448 233.216 218.112-218.88 27.648 30.72-245.248 246.016-232.96-230.656-90.112 90.112-199.68-150.528L167.40864 113.15072zM898.302976 128.51072 573.392896 128.51072l0-40.96 324.91008 0L898.302976 128.51072zM898.302976 34.984704 387.724288 34.984704l0-40.96 510.577664 0L898.302976 34.984704 898.302976 34.984704z"  horiz-adv-x="1024" />

    
    <glyph glyph-name="help" unicode="&#58962;" d="M216.26195 599.756061c63.608713 63.612807 145.631822 104.872512 236.255819 117.887944 110.771873 15.901155 221.156936-12.319583 310.74023-79.425957 89.603761-67.12684 147.716296-165.124781 163.628708-275.925307 32.853245-228.801033-126.581953-441.596534-355.259166-474.474338-95.890954-13.758352-194.216353 6.335289-276.879028 56.525388-14.134929 8.593725-18.62315 27.013237-10.048867 41.131793 8.654101 14.030551 26.985608 18.647709 41.123606 10.057053 70.808696-43.043329 155.080008-60.251246 237.299591-48.435129 195.971323 28.109198 332.626703 210.549344 304.498062 406.683373-13.634532 94.968955-63.444984 178.948625-140.260487 236.468666-76.79606 57.537438-171.395602 81.693604-266.335904 68.038606-196.179055-28.113291-332.777129-210.573903-304.601416-406.668023 7.384178-51.337225 25.208125-99.308797 53.049217-142.555763 8.9263-13.930267 4.864798-32.517601-8.959046-41.383526-13.906731-8.953929-32.44597-4.932336-41.379433 8.953929-32.494065 50.568722-53.324486 106.539478-61.98268 166.475546-15.897062 110.781082 12.301164 221.201961 79.466889 310.812885C188.832228 570.287913 202.07995 585.568944 216.26195 599.756061L216.26195 599.756061 216.26195 599.756061zM515.250532 22.343259c-24.78243 0-44.900629 20.1182-44.900629 44.905746s20.1182 44.905746 44.900629 44.905746c24.791639 0 44.909839-20.1182 44.909839-44.905746S540.041148 22.343259 515.250532 22.343259L515.250532 22.343259 515.250532 22.343259zM598.117868 328.435633c-26.046213-26.022677-52.928466-52.908-52.928466-77.064166l0-50.630121c0-16.521279-13.410428-29.9358-29.9358-29.9358-16.523325 0-29.934776 13.414521-29.934776 29.9358l0 50.630121c0 48.978505 37.421284 86.401836 70.466911 119.42188 24.219611 24.219611 49.27424 49.250704 49.27424 69.218478 0 49.910737-40.292682 90.503247-89.807399 90.503247-50.353828 0-89.806375-38.858006-89.806375-88.469937 0-16.523325-13.411451-29.9358-29.9358-29.9358-16.528442 0-29.939893 13.411451-29.939893 29.9358 0 81.793888 67.150376 148.3487 149.677974 148.3487 82.539878 0 149.682068-67.454298 149.682068-150.382009C664.9326 395.225805 630.955764 361.273529 598.117868 328.435633L598.117868 328.435633 598.117868 328.435633zM216.26195 599.756061c63.608713 63.612807 145.631822 104.872512 236.255819 117.887944 110.771873 15.901155 221.156936-12.319583 310.74023-79.425957 89.603761-67.12684 147.716296-165.124781 163.628708-275.925307 32.853245-228.801033-126.581953-441.596534-355.259166-474.474338-95.890954-13.758352-194.216353 6.335289-276.879028 56.525388-14.134929 8.593725-18.62315 27.013237-10.048867 41.131793 8.654101 14.030551 26.985608 18.647709 41.123606 10.057053 70.808696-43.043329 155.080008-60.251246 237.299591-48.435129 195.971323 28.109198 332.626703 210.549344 304.498062 406.683373-13.634532 94.968955-63.444984 178.948625-140.260487 236.468666-76.79606 57.537438-171.395602 81.693604-266.335904 68.038606-196.179055-28.113291-332.777129-210.573903-304.601416-406.668023 7.384178-51.337225 25.208125-99.308797 53.049217-142.555763 8.9263-13.930267 4.864798-32.517601-8.959046-41.383526-13.906731-8.953929-32.44597-4.932336-41.379433 8.953929-32.494065 50.568722-53.324486 106.539478-61.98268 166.475546-15.897062 110.781082 12.301164 221.201961 79.466889 310.812885C188.832228 570.287913 202.07995 585.568944 216.26195 599.756061L216.26195 599.756061 216.26195 599.756061z"  horiz-adv-x="1024" />

    
    <glyph glyph-name="search" unicode="&#59156;" d="M400.085333 58.734222c-192.128 0-348.444444 156.302222-348.444444 348.430222 0 192.142222 156.316444 348.444444 348.444444 348.444444 192.142222 0 348.444444-156.302222 348.444444-348.444444C748.544 215.036444 592.241778 58.734222 400.085333 58.734222zM400.085333 698.72c-160.768 0-291.555556-130.787556-291.555556-291.555556s130.787556-291.541333 291.555556-291.541333c160.753778 0 291.555556 130.773333 291.555556 291.541333S560.853333 698.72 400.085333 698.72zM194.104889 515.025778c-2.474667 0-4.977778 0.64-7.253333 2.005333-6.755556 3.996444-8.974222 12.743111-4.963556 19.484444 45.525333 76.657778 129.137778 124.273778 218.197333 124.273778 7.864889 0 14.222222-6.357333 14.222222-14.222222s-6.357333-14.222222-14.222222-14.222222c-79.075556 0-153.301333-42.296889-193.735111-110.364444C203.690667 517.500444 198.968889 515.025778 194.104889 515.025778zM160.682667 401.276444c-7.850667 0-14.222222 6.357333-14.222222 14.222222 0 20.195556 2.403556 31.445333 6.656 49.592889 1.792 7.651556 9.443556 12.373333 17.080889 10.609778 7.651556-1.792 12.401778-9.429333 10.609778-17.080889-3.982222-17.038222-5.902222-25.984-5.902222-43.121778C174.904889 407.633778 168.547556 401.276444 160.682667 401.276444zM887.04-155.608889c-22.812444 0-44.216889 8.860444-60.359111 24.974222L597.12 98.954667c-17.806222 17.806222-23.665778 39.808-16.526222 61.966222 5.831111 18.033778 19.498667 33.251556 30.748444 44.472889 16.668444 16.668444 37.162667 33.720889 62.890667 33.720889 10.965333 0 27.448889-3.384889 43.562667-19.498667l229.589333-229.560889c16.113778-16.142222 24.974222-37.560889 24.974222-60.359111 0-22.784-8.860444-44.216889-24.974222-60.330667C931.242667-146.748444 909.824-155.608889 887.04-155.608889zM634.510222 142.474667c0.085333 0 0.839111-1.336889 2.830222-3.299556l229.560889-229.589333c10.752-10.723556 29.496889-10.723556 40.248889 0 5.361778 5.390222 8.305778 12.529778 8.305778 20.110222 0 7.608889-2.944 14.748444-8.334222 20.138667L677.575111 179.395556c-2.033778 2.033778-3.356444 2.773333-3.726222 2.887111-0.199111-0.113778-6.058667-0.867556-22.272-17.109333C635.320889 148.945778 634.538667 143.086222 634.510222 142.474667L634.510222 142.474667z"  horiz-adv-x="1024" />

    
    <glyph glyph-name="loading" unicode="&#58951;" d="M923.424 364.256M512.064-151.296c-96.16 0-189.344 30.816-267.68 89.472-95.744 71.712-157.856 176.48-174.848 294.912-16.992 118.464 13.152 236.448 84.864 332.224 148.096 197.76 429.44 238.08 627.136 90.08 82.88-62.08 142.016-151.584 166.56-252 4.192-17.184-6.336-34.496-23.488-38.688-17.152-4.064-34.496 6.304-38.688 23.488-20.992 86.048-71.68 162.752-142.752 215.968C573.792 731.04 332.608 696.448 205.632 526.944c-61.472-82.08-87.296-183.2-72.704-284.736 14.56-101.536 67.808-191.296 149.888-252.736 169.536-127.04 410.688-92.384 537.6 77.12 33.216 44.384 56 94.112 67.648 147.84 3.776 17.28 20.896 28.256 38.048 24.512 17.28-3.744 28.256-20.8 24.512-38.048-13.664-62.784-40.224-120.832-78.976-172.672-71.712-95.744-176.48-157.888-294.976-174.848C555.072-149.76 533.504-151.296 512.064-151.296z"  horiz-adv-x="1024" />

    
    <glyph glyph-name="shoucang" unicode="&#58954;" d="M741.453391 715.607626c-131.326001 13.722536-219.111347-104.938004-231.501538-122.752742C497.562684 610.669622 409.776316 729.330162 278.450315 715.607626c-141.738142-14.809287-503.170914-363.39752 229.991138-824.268026-0.00307-0.63752-0.00614-1.270946-0.00921-1.908466 0.509606 0.320295 1.011027 0.63752 1.518586 0.957815 0.509606-0.320295 1.011027-0.63752 1.520633-0.957815-0.00307 0.63752-0.00614 1.270946-0.00921 1.908466C1244.626351 352.210106 883.193579 700.799362 741.453391 715.607626z"  horiz-adv-x="1024" />

    
    <glyph glyph-name="xinwen" unicode="&#58926;" d="M888.908625-212 135.046615-212C87.849115-212 49.424218-173.575103 49.424218-126.355224L49.424218 726.355224C49.424218 773.575103 87.849115 812 135.046615 812L710.054941 812l264.520838-269.287584L974.57578-126.355224C974.57578-173.575103 936.150883-212 888.908625-212zM135.046615 767.599886c-22.737155 0-41.222283-18.485128-41.222283-41.244662L93.824332-126.355224c0-22.759534 18.485128-41.244662 41.222283-41.244662l753.86201 0c22.759534 0 41.267041 18.485128 41.267041 41.244662L930.175666 524.562974 691.435539 767.599886 135.046615 767.599886zM221.4299 596.310335l251.630483 0 0-44.400114-251.630483 0 0 44.400114ZM221.4299 482.467907l251.630483 0 0-44.400114-251.630483 0 0 44.400114ZM221.4299 368.625478l251.630483 0 0-44.400114-251.630483 0 0 44.400114ZM221.4299 194.896606l578.141399 0 0-44.400114-578.141399 0 0 44.400114ZM221.4299 48.089779l578.141399 0 0-44.400114-578.141399 0 0 44.400114ZM950.831566 512.970606l-180.688769 0c-47.1975 0-85.622397 38.424897-85.622397 85.644776L684.5204 783.712831l44.400114 0 0-185.09745c0-22.759534 18.485128-41.244662 41.222283-41.244662l180.688769 0L950.831566 512.970606z"  horiz-adv-x="1024" />

    
    <glyph glyph-name="right" unicode="&#58888;" d="M775.450908 357.914896 338.739355 794.626449c-23.164734 23.164734-60.691645 23.164734-83.857399 0-23.164734-23.164734-23.164734-60.719188 0-83.883922L670.326185 295.268714 264.527128-110.537484c-22.412911-22.379247-22.412911-58.692223 0-81.07249 22.411891-22.383328 58.659579-22.383328 81.07147 0l420.210199 420.205099c14.233642 14.21732 19.412757 34.047304 15.56693 52.362419C798.4106 304.165123 796.43566 336.954627 775.450908 357.914896z"  horiz-adv-x="1024" />

    
    <glyph glyph-name="wode" unicode="&#58904;" d="M955.923532-110.936233c1.231037-4.084015 2.091638-8.329712 2.091638-12.81691 0-24.64019-19.951401-44.602847-44.570101-44.602847-24.615631 0-44.567032 19.962657-44.567032 44.602847 0 0.049119 0.013303 0.094144 0.013303 0.143263l-1.166569 0c-11.606339 186.693006-166.216649 334.626243-355.781052 334.626243-189.568497 0-344.178807-147.933237-355.785146-334.626243l-1.055029 0c0.002047-0.049119 0.01535-0.094144 0.01535-0.143263 0-24.64019-19.952424-44.602847-44.570101-44.602847-24.615631 0-44.567032 19.962657-44.567032 44.602847 0 4.226255 0.775666 8.234545 1.873674 12.110829C80.799234 57.758863 187.807387 200.794557 337.194742 264.517881c-69.481468 50.685379-114.818025 132.506896-114.818025 225.116107 0 153.925718 124.738979 278.723026 278.622742 278.723026 153.874553 0 278.620695-124.796284 278.620695-278.723026 0-89.328491-42.174542-168.638815-107.507526-219.645512C828.733735 209.579641 942.290023 63.501658 955.923532-110.936233zM690.305989 489.633988c0 104.572684-84.903715 189.338253-189.632965 189.338253-104.737436 0-189.637058-84.765569-189.637058-189.338253 0-104.563474 84.899622-189.336206 189.637058-189.336206C605.402273 300.297782 690.305989 385.070514 690.305989 489.633988z"  horiz-adv-x="1024" />

    
    <glyph glyph-name="up" unicode="&#58965;" d="M508.482385 467.056784c-21.002336-20.735253-41.142026-40.605813-61.264319-60.490699C325.965491 286.741022 204.69859 166.931309 83.488994 47.06122c-14.277168-14.118556-30.708396-19.404955-50.248428-13.521968-29.483498 8.875135-41.099047 46.864354-21.608134 70.755484 2.296299 2.813069 4.747117 5.522784 7.329942 8.076956 147.824767 146.129148 295.677163 292.229644 443.496813 438.362886 8.491395 8.395204 18.223037 13.928221 30.258141 15.537881 5.997598 0.802272 11.760858 3.433192 17.759479 4.146437 15.83464 1.879813 29.092595-3.709485 40.362266-14.859429 84.237543-83.33294 168.538531-166.605505 252.822123-249.89342 65.919339-65.141626 131.868353-130.254599 197.709921-195.47502 4.190439-4.151553 8.204869-8.745175 11.206226-13.783934 10.017144-16.809851 6.520507-44.647873-9.549493-57.420781-18.61394-14.795984-42.696428-15.47546-60.663638-0.903579-2.309602 1.87265-4.548596 3.850701-6.66377 5.938246-140.448776 138.760321-280.882202 277.533944-421.297208 416.328034C512.412904 462.317852 510.68147 464.55173 508.482385 467.056784z"  horiz-adv-x="1024" />

    
    <glyph glyph-name="icon" unicode="&#58898;" d="M846.49441-0.025403 846.49441 640.419351l-628.057645 0.506536L218.436765 812l-40.932207 0 0-171.041367-177.4667 0.143263-0.032746-40.932207 177.499446-0.143263 0-640.445777 628.057645-0.506536 0-171.074113 40.932207 0L846.49441-40.95761l177.4667-0.143263 0.033769 40.932207L846.49441-0.025403zM805.562203 0.007343l-587.125438 0.47379 0 599.51357 587.125438-0.47379L805.562203 0.007343zM760.702551 39.749446l0.036839 0 0 40.956766 0 479.36731L263.437634 560.073522l0-479.36731 0-40.956766 0.039909 0L760.702551 39.749446zM372.502523 503.194127c32.636272 0 59.092804-26.456532 59.092804-59.092804 0-32.636272-26.456532-59.092804-59.092804-59.092804-32.636272 0-59.092804 26.456532-59.092804 59.092804C313.409719 476.736572 339.866251 503.194127 372.502523 503.194127zM464.244902 323.707423l112.563569-180.101711 60.375005 78.794499 95.821273-141.693998L292.436056 80.706212 464.244902 323.707423z"  horiz-adv-x="1024" />

    
    <glyph glyph-name="meitizhongxin" unicode="&#58925;" d="M910.707213 637.807702c0-225.219461 0-450.436876 0-675.656337-0.237407-0.842181-0.515746-1.679245-0.701988-2.532683-1.107217-5.082762-1.732457-10.32209-3.365654-15.22782-9.677407-29.097712-35.771715-47.213301-67.703985-47.214325-218.075761-0.008186-436.153568-0.00614-654.229329 0.01535-3.003404 0-6.011924 0.230244-9.010211 0.455371-30.582529 2.322905-62.228273 28.603455-62.273299 68.669986-0.220011 192.887079-0.103354 385.772111-0.067538 578.659189 0 3.39226 0.258896 6.813173 0.728594 10.17371 4.975315 35.645848 35.429931 60.21543 68.056002 59.849086 21.972431-0.246617 43.952025 0.011256 65.928548 0.042979 1.246387 0.001023 2.492774 0 3.90289 0 0 3.560082-0.115634 6.570649 0.022513 9.567913 0.320295 6.903224 0.193405 13.889335 1.252527 20.688181 5.059226 32.475646 34.629705 57.525158 67.474764 57.525158 173.015495 0.001023 346.032014 0.005117 519.04751-0.025583 3.39533-0.001023 6.813173-0.217964 10.18292-0.645706 29.638017-3.75451 53.587476-26.472931 59.022255-55.876612C909.493571 643.444073 910.124951 640.629981 910.707213 637.807702zM246.118955 572.764314c-1.078565 0.061398-1.76111 0.134053-2.442632 0.134053-17.763572 0.00307-35.536354 0.348947-53.28867-0.113587-13.916964-0.363274-24.115234-7.293103-30.039153-20.040429-2.362814-5.080715-3.063779-10.527774-3.062755-16.120143 0.021489-185.968505 0.017396-371.939057 0.019443-557.907563 0-1.403976-0.068562-2.818185 0.048095-4.213975 1.131777-13.423731 7.264451-23.598464 19.590174-29.561269 5.321192-2.574638 11.04966-3.348258 16.9613-3.348258 211.56037 0.029676 423.122787 0.025583 634.683157 0.025583 1.505283 0 3.009544 0.00614 4.514827 0.044002 14.21884 0.345877 26.825972 9.3039 31.156604 22.861684 1.461281 4.583388 1.990331 9.640568 1.992377 14.481829 0.081864 213.767642 0.058328 427.53733 0.044002 641.305995-0.002047 1.906419 0.044002 3.821025-0.102331 5.718235-0.743944 9.739828-4.5312 18.013259-12.099572 24.347524-7.209192 6.033413-15.69547 7.979742-24.924669 7.977695-166.700673-0.042979-333.400323-0.030699-500.099972-0.033769-1.404999 0-2.816139 0.054235-4.212952-0.059352-8.68173-0.698918-17.08819-2.88163-22.047132-10.475586-7.498788-11.479449-12.338003-24.460088-12.356422-38.142715-0.2415-176.333054-0.160659-352.668155-0.160659-529.001209 0-1.37123 0-2.739391 0-4.464685-1.461281 0-2.536776 0-3.612271 0-11.742439 0-23.484877-0.032746-35.227316 0.013303-6.133697 0.024559-5.322216-0.862647-5.322216 5.175883-0.01535 162.183799-0.01228 324.366575-0.01228 486.549352C246.118955 569.414009 246.118955 570.91213 246.118955 572.764314zM379.187647 568.607644c73.723072 0 147.239436 0 220.946135 0 0-74.503854 0-148.810211 0-223.211734-73.732282 0-147.251715 0-220.946135 0C379.187647 419.767757 379.187647 493.992249 379.187647 568.607644zM423.316703 523.892233c0-44.909839 0-89.499383 0-134.127813 44.37772 0 88.542592 0 132.63481 0 0 44.848441 0 89.429799 0 134.127813C511.682263 523.892233 467.667817 523.892233 423.316703 523.892233zM777.910721 76.090371c-133.004223 0-265.717827 0-398.662699 0 0 14.536065 0 29.020964 0 43.865044 0.998747 0.069585 2.049682 0.209778 3.101641 0.209778 130.430608 0.011256 260.862239 0.011256 391.291824 0.00614 4.323469-0.001023 4.374634-0.042979 4.38282-4.331655 0.020466-12.440333 0.008186-24.88169 0.004093-37.323047C778.029424 77.825898 777.962909 77.135166 777.910721 76.090371zM777.797134 255.63456c-133.169999 0-265.805832 0-398.603347 0 0 14.631232 0 29.120224 0 43.99398 1.347694 0 2.523473 0 3.698229 0 130.268926 0 260.532735 0 390.799614-0.002047 4.097318 0 4.103458-0.007163 4.105504-4.058432 0.002047-12.145621 0-24.287149 0-36.432771C777.797134 258.051609 777.797134 256.964858 777.797134 255.63456zM379.186623 209.597037c132.891659 0 265.502933 0 398.396639 0 0-14.582113 0-29.034267 0-43.644009-132.855844 0-265.541819 0-398.396639 0C379.186623 180.492162 379.186623 194.888034 379.186623 209.597037zM645.434523 434.287449c0 14.754029 0 29.155017 0 43.843554 1.182942 0.062422 2.246157 0.165776 3.311419 0.165776 41.819454 0.007163 83.638909-0.019443 125.45734 0.063445 2.809999 0.00614 3.901867-0.689708 3.875261-3.648087-0.121773-12.736069-0.046049-25.473161-0.056282-38.208207 0-0.677429-0.140193-1.353834-0.232291-2.215458C733.683427 434.287449 689.70275 434.287449 645.434523 434.287449zM645.413034 568.807189c1.344624 0 2.52859 0 3.707438 0 41.542138 0 83.0853 0.001023 124.629485-0.001023 4.03899-0.001023 4.045129-0.00921 4.047176-4.114714 0.002047-12.043291 0-24.083511 0-36.126802 0-1.089821 0-2.181689 0-3.536546-44.239574 0-88.212064 0-132.3841 0C645.413034 539.422951 645.413034 553.818823 645.413034 568.807189zM645.295354 345.479821c0 3.055592 0 5.942339 0 8.828063 0 10.635221 0.052189 21.269419-0.039909 31.903617-0.020466 2.213411 0.391926 3.195785 2.918469 3.191692 42.23901-0.069585 84.47495-0.055259 126.711913-0.032746 1.814322 0.002047 3.02387-0.149403 3.009544-2.51631-0.088004-13.242606-0.046049-26.485211-0.064468-39.72884 0-0.48607-0.155543-0.969071-0.270153-1.644453C733.608725 345.479821 689.706843 345.479821 645.295354 345.479821z"  horiz-adv-x="1024" />

    
    <glyph glyph-name="biaodan" unicode="&#58924;" d="M607.789253 373.045333 290.291071 373.045333c-7.175758 0-13.045657 5.871192-13.045657 13.045657l0 2.376404c0 7.175758 5.871192 13.045657 13.045657 13.045657l317.498182 0c7.175758 0 13.045657-5.871192 13.045657-13.045657l0-2.376404C620.834909 378.915232 614.963717 373.045333 607.789253 373.045333zM607.789253 266.686384 290.291071 266.686384c-7.175758 0-13.045657 5.871192-13.045657 13.045657l0 1.585131c0 7.175758 5.871192 13.045657 13.045657 13.045657l317.498182 0c7.175758 0 13.045657-5.871192 13.045657-13.045657l0-1.585131C620.834909 272.557576 614.963717 266.686384 607.789253 266.686384zM607.789253 161.514343 290.291071 161.514343c-7.175758 0-13.045657 5.871192-13.045657 13.045657l0 0.791273c0 7.175758 5.871192 13.045657 13.045657 13.045657l317.498182 0c7.175758 0 13.045657-5.871192 13.045657-13.045657l0-0.791273C620.834909 167.384242 614.963717 161.514343 607.789253 161.514343zM534.528 505.485253 534.528 505.485253c0.131879 0 0.259879 0 0.398222 0L534.528 505.485253zM739.721051 493.788121l0 1.00202-0.086626 0c-0.307717 2.536727-1.383434 4.963556-3.333172 6.913293l-6.151758 6.151758-0.029737-0.001293 0.029737 0.002586L527.410424 710.595556l-1.578667 1.578667c-2.280727 2.280727-5.214384 3.527111-8.21398 3.757253l0 0.047838L169.302626 715.979313c-5.219556 0-11.071354-4.270545-11.071354-9.488808l0-772.327434c0-5.219556 5.851798-9.488808 11.071354-9.488808l560.929616 0c5.219556 0 9.488808 4.270545 9.488808 9.488808L739.721051 493.309737C739.719758 493.470061 739.727515 493.629091 739.721051 493.788121zM529.782949 509.047273l0 8.299313L529.782949 667.963798 692.130909 505.617131l-2.240646-0.131879L534.528 505.485253l0 0C531.128889 505.480081 529.782949 505.486545 529.782949 509.047273zM708.273131-48.333253 190.352808-48.333253c-3.697778 0-4.352 1.444202-4.352 5.143273L186.000808 680.481939c0 3.697778 0.654222 6.724525 4.352 6.724525l310.75297 0L501.105778 488.573737c0-5.219556 4.270545-9.488808 9.488808-9.488808L711.835152 479.084929l0-522.273616C711.835152-46.887758 711.972202-48.333253 708.273131-48.333253z"  horiz-adv-x="1024" />

    
    <glyph glyph-name="yuanjiaojuxing1kaobei2" unicode="&#58932;" d="M1066.380387-212 56.716387-212C25.401806-212 0-186.598194 0-155.283613L0-155.184516C0-123.836903 25.401806-98.435097 56.716387-98.435097L1066.380387-98.435097C1097.694968-98.435097 1123.096774-123.836903 1123.096774-155.184516L1123.096774-155.283613C1123.096774-186.598194 1097.694968-212 1066.380387-212ZM1066.314323 243.217548 56.782452 243.217548C25.401806 243.217548 0 268.652387 0 300 0 331.347613 25.401806 356.782452 56.782452 356.782452L1066.314323 356.782452C1097.661935 356.782452 1123.096774 331.347613 1123.096774 300 1123.096774 268.652387 1097.661935 243.217548 1066.314323 243.217548ZM1066.380387 698.468129 56.716387 698.468129C25.401806 698.468129 0 723.836903 0 755.184516L0 755.283613C0 786.598194 25.401806 812 56.716387 812L1066.380387 812C1097.694968 812 1123.096774 786.598194 1123.096774 755.283613L1123.096774 755.184516C1123.096774 723.836903 1097.694968 698.468129 1066.380387 698.468129Z"  horiz-adv-x="1124" />

    
    <glyph glyph-name="icon1" unicode="&#58896;" d="M527.034926-46.620551c-247.174496 0-447.543989 200.370517-447.543989 447.538873 0 190.783161 119.585609 353.238137 287.701514 417.622516l0-69.242014c-131.960451-60.646242-223.765343-193.624882-223.765343-348.381525 0-211.845872 171.759899-383.606795 383.606795-383.606795 211.845872 0 383.605771 171.762969 383.605771 383.606795 0 154.75562-91.811032 287.736307-223.771483 348.411201L686.868191 818.540837c168.113859-64.384379 287.702538-226.840378 287.702538-417.622516C974.573799 153.749966 774.203282-46.620551 527.034926-46.620551L527.034926-46.620551zM495.066841 848.461287l63.931055 0L558.997895 399.768125l-63.931055 0L495.066841 848.461287 495.066841 848.461287z"  horiz-adv-x="1024" />

    
    <glyph glyph-name="down" unicode="&#58889;" d="M960.208115 489.879582c0-13.037944-5.217838-25.244964-14.657838-34.438347L549.849026 71.770995c-18.608823-18.197454-48.591695-19.087731-68.257593-2.13257-3.282766 2.488681-5.526877 4.324492-7.767917 6.339382L78.477352 459.178349c-9.467629 9.248641-14.685467 21.51399-14.685467 34.496675 0 13.097296 5.217838 25.368784 14.660908 34.555004 19.424398 19.028379 51.101865 19.028379 70.680782 0l364.839359-353.384469 360.923166 349.532745c9.467629 9.187243 22.002107 14.284331 35.356252 14.284331 13.322423 0 25.826202-5.03569 35.204803-14.22191C954.956507 515.192084 960.208115 502.923666 960.208115 489.879582z"  horiz-adv-x="1024" />

    
    <glyph glyph-name="p-shop" unicode="&#59007;" d="M163.632-57.404c-46.192 0-83.771 37.327-83.771 83.209l-0.254 194.114c-0.014 7.169 2.773 13.91 7.848 18.981 5.083 5.079 11.852 7.883 19.061 7.895 14.871 0 26.994-12.002 27.019-26.757l0.254-194.206c0-16.32 13.388-29.601 29.843-29.601l684.267 0.436c16.453 0.050 29.831 13.415 29.831 29.79l-0.074 197.62c0 14.784 12.097 26.812 26.966 26.812 14.87 0 26.966-12.029 26.966-26.815l0.074-197.581c0-45.921-37.54-83.365-83.683-83.465l-684.348-0.432zM207.828 299.286c-31.774 0.004-60.242 6.018-84.654 17.88v3.552l-0.039 0.001v0.065l-3.117 0.051-3.889 0.021c-61.043 33.315-98.972 97.001-99.042 166.398 0 19.986 3.209 39.937 9.537 59.293l0.164 0.5 0.106 0.517c0.298 1.437 0.633 2.79 0.907 3.657l91.754 215.97c12.915 38.432 49.145 62.304 94.552 62.304h598.362c46.303-0.101 84.718-25.383 97.862-64.409l0.091-0.267 85.401-211.719c0.551-1.285 0.973-2.687 1.318-4.35l0.071-0.308c0.056-0.228 0.090-0.388 0.109-0.532l0.117-0.854 0.27-0.821c6.12-18.539 9.303-38.657 9.202-58.182 0.034-69.586-37.998-133.51-99.253-166.842-25.757-14.064-56.44-21.283-91.2-21.457-56.54 0-109.673 24.552-145.76 67.36l-7.192 8.529-7.188-8.532c-35.742-42.431-88.225-67.021-143.992-67.466-56.031 0.342-108.773 24.871-144.66 67.298l-7.19 8.502-7.176-8.512c-36.096-42.82-89.119-67.478-145.472-67.65l0 0zM145.676 365.89c17.205-8.629 38.095-13.004 62.105-13.004 47.386 0.152 90.727 24.292 115.947 64.573l0.336 0.536 0.261 0.577c1.33 2.938 3.807 8.409 8.575 13.597l0.224 0.254c5.31 6.306 15.597 10.19 26.892 10.19 12.017 0 22.868-4.372 29.027-11.692l0.158-0.182c3.362-3.75 5.638-8.384 7.145-11.451l0.276-0.563 0.241-0.39c25.059-40.459 68.215-64.776 115.443-65.051 46.882 0.354 89.761 24.614 114.747 64.895l0.26 0.42 0.215 0.445c1.568 3.243 3.935 8.141 8.082 12.798l0.211 0.246c5.861 7.154 16.496 11.566 27.794 11.566 14.523 0 23.171-6.256 27.868-11.504 4.383-4.787 6.77-9.897 8.198-12.95l0.238-0.51 0.294-0.473c25.176-40.59 68.622-64.825 116.216-64.825 25.597 0.157 47.602 5.162 65.42 14.876 43.996 23.971 71.277 69.816 71.199 119.645 0 14.833-2.521 29.715-7.493 44.226-0.307 1.014-0.605 2.154-0.828 3.193l-0.171 0.79-84.729 210.125c-9.469 27.264-36.505 28.883-46.688 29.493l-0.279 0.016-598.824 0c-22.925 0-37.833-9.425-44.312-28.014l-90.468-213.014-0.186-0.824c-0.201-0.887-0.408-1.653-0.616-2.273-4.955-14.491-7.471-29.456-7.471-44.459 0.042-50.452 27.823-96.505 72.501-120.188l2.066-1.095h0.127zM214.692 523.23c-14.869 0-26.966 12.031-26.966 26.818 0 14.786 12.097 26.816 26.966 26.816h581.887c14.87 0 26.966-12.030 26.966-26.816 0-14.788-12.097-26.818-26.966-26.818h-581.887z"  horiz-adv-x="1024" />

    
    <glyph glyph-name="shanchu" unicode="&#58966;" d="M885.960599 666.667871 139.025868 666.667871c-13.322423 0-24.092721 10.770298-24.092721 24.092721 0 13.302981 10.770298 24.097838 24.092721 24.097838l746.93473 0c13.323447 0 24.092721-10.794857 24.092721-24.097838C910.05332 677.438169 899.284045 666.667871 885.960599 666.667871L885.960599 666.667871zM645.010875 763.043872l-265.036305 0c-13.323447 0-24.097838 10.770298-24.097838 24.097838 0 13.297864 10.774391 24.093744 24.097838 24.093744l265.036305 0c13.328563 0 24.098861-10.796904 24.098861-24.093744C669.109736 773.813147 658.340461 763.043872 645.010875 763.043872L645.010875 763.043872zM404.06729 136.590144 404.06729 546.194032c0 13.301957 10.769274 24.097838 24.092721 24.097838 13.328563 0 24.097838-10.79588 24.097838-24.097838l0-409.603889c0-13.32754-10.769274-24.097838-24.097838-24.097838C414.837588 112.492306 404.06729 123.261581 404.06729 136.590144L404.06729 136.590144zM572.728618 136.590144 572.728618 546.194032c0 13.301957 10.773368 24.097838 24.097838 24.097838 13.323447 0 24.092721-10.79588 24.092721-24.097838l0-409.603889c0-13.32754-10.769274-24.097838-24.092721-24.097838C583.501986 112.492306 572.728618 123.261581 572.728618 136.590144L572.728618 136.590144zM235.406986 594.384591c13.32447 0 24.093744-10.796904 24.093744-24.092721l0-28.528754 0-91.946109 0-385.510144c0-26.600845 21.590737-48.192605 48.190559-48.192605l409.603889 0c26.599821 0 48.190559 21.591761 48.190559 48.192605l0 385.510144 0 91.946109 0 28.528754c0 13.296841 10.769274 24.092721 24.093744 24.092721 13.32754 0 24.097838-10.796904 24.097838-24.092721l0-96.383164 0-24.091698 0-409.609005c0-39.924291-32.361035-72.285327-72.284303-72.285327L283.593452-32.077324c-39.923268 0-72.284303 32.361035-72.284303 72.285327L211.309148 405.601994l0 44.215014 0 24.091698 0 96.383164C211.309148 583.587688 222.083539 594.384591 235.406986 594.384591L235.406986 594.384591zM235.406986 594.384591"  horiz-adv-x="1024" />

    
    <glyph glyph-name="duihao" unicode="&#58930;" d="M504.651294-110.953412 528.143059-110.953412 1138.808471 861.003294 1016.651294 861.003294 517.180235 144.384 204.679529 318.885647 22.287059 318.885647 504.651294-110.953412 504.651294-110.953412Z"  horiz-adv-x="1145" />

    
    <glyph glyph-name="zanting" unicode="&#59755;" d="M191.773 720.996c0 18.674 14.764 33.775 33.809 33.775h168.338c18.674 0 33.81-14.798 33.81-33.775v-673.992c0-18.674-14.764-33.775-33.81-33.775h-168.338c-18.674 0-33.809 14.798-33.809 33.775v673.992zM596.269 720.996c0 18.674 14.764 33.775 33.809 33.775h168.337c18.674 0 33.81-14.798 33.81-33.775v-673.992c0-18.674-14.764-33.775-33.81-33.775h-168.337c-18.674 0-33.809 14.798-33.809 33.775v673.992z"  horiz-adv-x="1024" />

    
    <glyph glyph-name="gouwuche" unicode="&#58931;" d="M703.767558 769.007701c14.509459 0 26.301016-11.780301 26.301016-26.317389 0-14.536065-11.791557-26.350135-26.301016-26.350135L57.023715 716.340177l58.922994-370.273115c0.229221-1.379417 0.327458-2.756787 0.327458-4.13518l0.065492 0c0-0.098237 0.032746-44.330648 44.1178-51.254338l586.739215-13.815657 78.083379 487.352647c6.64842 41.706891 25.154913 76.851319 57.613162 99.985202 28.658713 20.377096 67.307965 30.648021 117.157303 26.677593 14.476713-1.115404 25.25315-13.781888 24.139793-28.28623-1.146103-14.470573-13.790074-25.299199-28.234041-24.182772-36.748972 2.920516-63.901379-3.674693-82.669838-17.030885-20.107967-14.306844-31.769564-37.407981-36.256762-65.398476l-81.653695-509.863337-0.12996-0.623193-16.181541-101.133352c-1.046842-13.551644-12.379958-24.282033-26.201755-24.282033l-610.617042 0c-14.508435 0-26.299993 11.813047-26.299993 26.349111s11.791557 26.350135 26.299993 26.350135l588.280314 0 8.28571 51.779294-580.057025 13.68365c-1.571798-0.064468-3.14462 0-4.750187 0.231267-82.636069 11.812023-89.579201 88.564082-90.168626 101.591793L0.754153 736.422562c-0.491187 2.001587-0.754177 4.101411-0.754177 6.26775 0 14.537088 11.791557 26.317389 26.301016 26.317389L703.767558 769.007701zM704.979153 62.455703c25.382087 0 48.408523-10.336416 65.047482-27.007097 16.637935-16.668635 26.923186-39.70428 26.923186-65.169255 0-25.299199-10.285251-48.301076-26.923186-65.036225l-0.065492-0.065492-0.065492-0.032746-0.163729-0.163729c-16.670681-16.604166-39.565111-26.841322-64.751746-26.841322-25.416879 0-48.41057 10.336416-65.047482 27.006074-16.638959 16.669658-26.955932 39.705304-26.955932 65.134463 0 25.366737 10.316973 48.40136 26.955932 65.072041l0.098237 0.097214C656.667844 52.12031 679.660511 62.455703 704.979153 62.455703L704.979153 62.455703zM732.819221-1.7936c-7.107885 7.121188-16.966417 11.55108-27.840068 11.55108-10.906397 0-20.765953-4.365424-27.872814-11.452843l-0.098237-0.098237c-7.075139-7.121188-11.431354-16.998139-11.431354-27.926026 0-10.894118 4.419659-20.771069 11.529591-27.891234 7.139607-7.15291 16.998139-11.582803 27.872814-11.582803 10.93812 0 20.796652 4.397147 27.840068 11.485589l0.12996 0.098237c7.042393 7.054673 11.431354 16.932648 11.431354 27.891234C744.380535-18.791739 739.958829-8.914788 732.819221-1.7936L732.819221-1.7936zM222.591588 62.455703c25.415856 0 48.408523-10.336416 65.047482-27.007097 16.637935-16.668635 26.954909-39.70428 26.954909-65.169255 0-25.299199-10.316973-48.301076-26.954909-65.036225l-0.065492-0.065492-0.033769-0.032746-0.163729-0.163729c-16.70445-16.604166-39.59888-26.841322-64.785515-26.841322-25.384134 0-48.409546 10.336416-65.047482 27.006074s-26.923186 39.705304-26.923186 65.134463c0 25.366737 10.284227 48.40136 26.923186 65.072041l0.098237 0.097214C174.313025 52.12031 197.272946 62.455703 222.591588 62.455703L222.591588 62.455703zM250.464402-1.7936c-7.107885 7.121188-16.999163 11.55108-27.872814 11.55108-10.906397 0-20.733207-4.365424-27.872814-11.452843l-0.098237-0.098237c-7.042393-7.121188-11.43033-16.998139-11.43033-27.926026 0-10.894118 4.421706-20.771069 11.528568-27.891234 7.140631-7.15291 16.999163-11.582803 27.872814-11.582803 10.939143 0 20.798698 4.397147 27.872814 11.485589l0.098237 0.098237c7.075139 7.054673 11.431354 16.932648 11.431354 27.891234C261.99297-18.791739 257.571263-8.914788 250.464402-1.7936L250.464402-1.7936z"  horiz-adv-x="1025" />

    
    <glyph glyph-name="home" unicode="&#58897;" d="M1119.18901 376.217993 563.79205 896l-555.256744-518.239628c-10.796659-10.095577-11.497741-27.201972-1.261947-37.998631 10.095577-10.796659 27.201972-11.497741 37.998631-1.261947L563.79205 822.2462 1082.31211 336.957415c5.188005-4.907572 11.778173-7.29125 18.368342-7.29125 7.151034 0 14.302068 2.804327 19.630289 8.553197C1130.546534 349.016021 1129.985669 366.122415 1119.18901 376.217993L1119.18901 376.217993zM949.667443 365.56155c-14.862933 0-26.921539-12.058606-26.921539-26.921539l0-412.796933L707.373591-74.156922 707.373591 213.006162 420.210508 213.006162l0-287.163084-215.372313 0L204.838195 338.640011c0 14.862933-12.058606 26.921539-26.921539 26.921539-14.862933 0-26.921539-12.058606-26.921539-26.921539l0-466.640011 323.058469 0L474.053586 159.163084l179.476927 0 0-287.163084 323.058469 0L976.588982 338.640011C976.588982 353.502944 964.530376 365.56155 949.667443 365.56155L949.667443 365.56155zM761.21667 751.436944"  horiz-adv-x="1128" />

    
    <glyph glyph-name="left" unicode="&#59045;" d="M352.147266 381.926627 779.035826 808.815187C799.029681 828.809043 799.029731 861.137238 779.090337 881.076632 759.191515 900.975453 726.798392 900.99162 706.828892 881.022121L243.91711 418.110339C228.213135 402.406363 224.84366 379.093136 233.782345 360.150269 236.229377 354.937999 239.604228 350.055797 243.905791 345.754234L698.814598-109.154572C718.769057-129.109031 751.149988-129.080673 771.048809-109.181851 790.988204-89.242456 790.942455-56.868563 771.021532-36.947639L352.147266 381.926627Z"  horiz-adv-x="1024" />

    
    <glyph glyph-name="daohang" unicode="&#58886;" d="M215.420793 607.085868c11.062963 0 20.026102 7.844665 20.026102 17.522072 0 9.67843-8.963139 17.523095-20.026102 17.523095l-80.105433 0c-11.057847 0-20.025079-7.845689-20.025079-17.523095 0-9.677407 8.967232-17.522072 20.025079-17.522072L215.420793 607.085868 215.420793 607.085868zM215.420793 379.283582c11.062963 0 20.026102 7.845689 20.026102 17.522072 0 9.67843-8.963139 17.523095-20.026102 17.523095l-80.105433 0c-11.057847 0-20.025079-7.843642-20.025079-17.523095 0-9.676383 8.967232-17.522072 20.025079-17.522072L215.420793 379.283582 215.420793 379.283582zM215.420793 151.482319c11.062963 0 20.026102 7.845689 20.026102 17.523095 0 9.67843-8.963139 17.523095-20.026102 17.523095l-80.105433 0c-11.057847 0-20.025079-7.844665-20.025079-17.523095 0-9.677407 8.967232-17.523095 20.025079-17.523095L215.420793 151.482319 215.420793 151.482319zM916.3487 607.085868c11.057847 0 20.025079 7.844665 20.025079 17.522072 0 9.67843-8.968256 17.523095-20.025079 17.523095L335.57843 642.131035c-11.057847 0-20.025079-7.845689-20.025079-17.523095 0-9.677407 8.967232-17.522072 20.025079-17.522072L916.3487 607.085868 916.3487 607.085868zM921.352667 379.283582c11.062963 0 20.026102 7.845689 20.026102 17.522072 0 9.67843-8.964162 17.523095-20.026102 17.523095L340.588537 414.328749c-11.062963 0-20.030196-7.843642-20.030196-17.523095 0-9.676383 8.968256-17.522072 20.030196-17.522072L921.352667 379.283582 921.352667 379.283582zM923.855674 151.482319c11.06194 0 20.025079 7.845689 20.025079 17.523095 0 9.67843-8.964162 17.523095-20.025079 17.523095L343.090521 186.52851c-11.06194 0-20.026102-7.844665-20.026102-17.523095 0-9.677407 8.964162-17.523095 20.026102-17.523095L923.855674 151.482319 923.855674 151.482319zM923.855674 151.482319"  horiz-adv-x="1024" />

    
    <glyph glyph-name="jishi" unicode="&#58910;" d="M511.573333 895.146667c-278.506658 0-505.023984-222.591993-511.423984-499.562651C6.058683 637.269341 189.82401 831.189335 415.65867 831.189335c229.54666 0 415.658654-200.426661 415.658654-447.615986 0-52.970665 42.943999-95.935997 95.914664-95.935997 52.949331 0 95.914664 42.965332 95.914664 95.935997C1023.146651 666.112007 794.111991 895.146667 511.573333 895.146667zM511.573333-127.999967c278.506658 0 505.023984 222.591993 511.402651 499.562651-5.888-241.663992-189.653327-435.626653-415.487987-435.626653-229.54666 0-415.658654 200.447994-415.658654 447.637319 0 52.949331-42.965332 95.914664-95.935997 95.914664C42.965348 479.488013 1.6e-05 436.544015 1.6e-05 383.57335 1.6e-05 101.034693 229.034676-127.999967 511.573333-127.999967z"  horiz-adv-x="1024" />

    
    <glyph glyph-name="jiantou" unicode="&#59204;" d="M690.88 240.832l-157.888-157.888c-2.816-3.584-6.464-6.4-10.816-8-0.32-0.064-0.512-0.128-0.704-0.128-2.56-1.152-5.376-1.536-8.192-1.664-0.384 0-0.832-0.32-1.216-0.32-0.768 0-1.408 0.512-2.176 0.512-1.664 0.128-3.328 0.512-4.992 1.088-1.984 0.512-3.776 1.344-5.568 2.24-1.088 0.576-2.112 1.344-3.136 2.112-0.896 0.704-2.048 1.024-2.88 1.984l-160.128 160.064c-10.368 10.304-10.368 27.072 0 37.248 10.24 10.304 27.008 10.304 37.376 0l115.2-115.136L485.76 419.712c0 14.72 11.968 26.816 26.688 26.816s26.688-12.032 26.688-26.816l0-255.936 114.432 114.304c10.176 10.304 27.008 10.304 37.312 0C701.12 267.904 701.12 251.136 690.88 240.832zM512.256 517.44c-14.72 0-26.688 11.968-26.688 26.688 0 14.656 11.904 26.624 26.688 26.624 14.784 0 26.688-11.968 26.688-26.624C539.008 529.344 527.04 517.44 512.256 517.44zM512.256 641.856c-14.72 0-26.688 11.904-26.688 26.688 0 14.656 11.904 26.624 26.688 26.624 14.784 0 26.688-11.968 26.688-26.624C539.008 653.76 527.04 641.856 512.256 641.856z"  horiz-adv-x="1024" />

    
    <glyph glyph-name="icon-yxj-mune" unicode="&#58885;" d="M984.576-102.4h-945.152c-21.504 0-39.424 16.896-39.424 38.4s17.408 38.4 39.424 38.4h945.152c21.504 0 39.424-16.896 39.424-38.4s-17.408-38.4-39.424-38.4zM984.576 174.080h-945.152c-21.504 0-39.424 16.896-39.424 38.4s17.408 38.4 39.424 38.4h945.152c21.504 0 39.424-16.896 39.424-38.4s-17.408-38.4-39.424-38.4zM984.576 450.56h-945.152c-22.016 0-39.424 16.896-39.424 38.4s17.408 38.4 39.424 38.4h945.152c21.504 0 39.424-16.896 39.424-38.4s-17.408-38.4-39.424-38.4zM382.464 754.688l101.888 101.888c15.36 15.36 40.448 15.36 55.808 0l101.888-101.888c24.576-24.576 7.168-67.072-27.648-67.072h-204.288c-34.816 0-52.736 42.496-27.648 67.072z"  horiz-adv-x="1024" />

    
    <glyph glyph-name="radio-checked" unicode="&#58895;" d="M497.344-101.312c-265.344 0-481.344 215.936-481.344 481.344s215.936 481.344 481.344 481.344 481.344-215.936 481.344-481.344-215.936-481.344-481.344-481.344zM497.344 829.376c-247.744 0-449.344-201.536-449.344-449.344 0-247.808 201.536-449.344 449.344-449.344 247.808 0 449.344 201.536 449.344 449.344 0 247.808-201.536 449.344-449.344 449.344zM315.328 384c0-108.619 88.053-196.672 196.672-196.672s196.672 88.053 196.672 196.672c0 0 0 0 0 0 0 108.619-88.053 196.672-196.672 196.672-108.619 0-196.672-88.053-196.672-196.672z"  horiz-adv-x="1024" />

    
    <glyph glyph-name="toast" unicode="&#59017;" d="M840.086805 831.532733 183.667601 831.532733C117.758496 831.532733 64.318376 778.093637 64.318376 712.183508l0-656.419204c0-65.920362 53.44012-119.354342 119.348202-119.354342L840.086805-63.590038c65.920362 0 119.354342 53.43398 119.354342 119.354342L959.441147 712.183508C959.441147 778.093637 906.007167 831.532733 840.086805 831.532733zM902.64663 53.324742c0-33.205263-26.917046-60.121286-60.120262-60.121286L181.231109-6.796544c-33.206286 0-60.116169 26.916023-60.116169 60.121286L121.11494 714.622046c0 33.202193 26.909883 60.115146 60.116169 60.115146l661.295258 0c33.203216 0 60.120262-26.91193 60.120262-60.115146L902.64663 53.324742zM742.070444 522.1535 434.020486 218.456686c-3.875261-3.89061-10.191106-3.89061-14.040784 0l-28.084639 28.461215c-3.849678 3.932566-10.187013 10.32209-14.037714 14.259772l-96.128361 99.734492c-1.914606 1.946328-2.942005 4.66116-2.942005 7.247054 0 2.571568 1.027399 5.03569 2.942005 6.992251l18.358113 20.770046c1.935072 1.99647 4.532223 2.957355 7.083326 2.928702 2.520403-0.008186 5.03876-0.978281 6.957459-2.928702l105.851816-81.765235c3.849678-3.954055 10.165524-3.954055 14.040784 0l276.207739 235.30926c3.859911 3.918239 10.171664 3.918239 14.026458 0l17.815761-13.068643C745.941612 532.491962 745.941612 526.06253 742.070444 522.1535z"  horiz-adv-x="1024" />

    
    <glyph glyph-name="qingkong" unicode="&#59040;" d="M684.543964 185.323192c-6.690355 0-13.373485 2.485402-18.474339 7.589868L323.990912 534.933973c-10.201707 10.20532-10.201707 26.757807 0 36.959515 10.20532 10.194482 26.754195 10.194482 36.959515 0l342.075101-342.020913c10.198095-10.201707 10.198095-26.757807 0-36.959515C697.924674 187.815819 691.234319 185.323192 684.543964 185.323192L684.543964 185.323192zM684.543964 185.323192M342.468863 185.323192c-6.693967 0-13.377097 2.485402-18.477951 7.589868-10.201707 10.201707-10.201707 26.757807 0 36.959515l342.078713 342.020913c10.201707 10.194482 26.754195 10.194482 36.955902 0 10.198095-10.20532 10.198095-26.754195 0-36.959515l-342.075101-342.020913C355.842348 187.815819 349.155606 185.323192 342.468863 185.323192L342.468863 185.323192zM342.468863 185.323192M513.535314-124.387497C234.090171-124.387497 6.68313 102.958132 6.68313 382.457461 6.68313 661.902604 234.090171 889.28797 513.535314 889.28797c279.445142 0 506.855796-227.381754 506.855796-506.826896C1020.387497 102.958132 792.980456-124.387497 513.535314-124.387497L513.535314-124.387497zM513.535314 837.025894c-250.646271 0-454.59372-203.914937-454.59372-454.568433 0-250.649884 203.947449-454.59372 454.59372-454.59372 250.649884 0 454.590108 203.943837 454.590108 454.59372C968.125422 633.110957 764.185197 837.025894 513.535314 837.025894L513.535314 837.025894zM513.535314 837.025894"  horiz-adv-x="1024" />

    
    <glyph glyph-name="bofang" unicode="&#59057;" d="M512.014326 831.441659c-246.729357 0-447.455985-200.725604-447.455985-447.455985 0-246.726288 200.725604-447.426309 447.455985-447.426309 246.700705 0 447.426309 200.725604 447.426309 447.426309S758.715031 831.441659 512.014326 831.441659L512.014326 831.441659zM512.014326-7.58449c-215.921701 0-391.598816 175.678138-391.598816 391.56914 0 215.895095 175.678138 391.598816 391.598816 391.598816 215.892025 0 391.56914-175.678138 391.56914-391.598816S727.906351-7.58449 512.014326-7.58449L512.014326-7.58449zM512.014326-7.58449M713.944362 418.783201 469.394646 568.377264l-3.602038 1.86958c-2.070148 0.895393-20.948101 8.68787-41.029462 8.68787-34.746362 0-57.230446-23.098068-57.230446-58.793034l0-283.930631 1.509377-4.381797c5.248537-15.44783 22.871917-41.557488 55.384401-41.557488l0 0c10.335393 0 21.033036 2.789533 32.818453 8.823969l241.754043 137.021723 2.373047 1.537006c16.646122 11.785417 34.631752 41.390689 16.117073 74.739215L713.944362 418.783201 713.944362 418.783201zM430.767907 248.221594c-3.51915-1.786693-5.504364-2.069125-6.144954-2.124384-0.336668 0.281409-0.7552 0.756223-1.202385 1.344624L423.420569 520.140657c0 1.199315 0.059352 2.180666 0.170892 2.907213 5.166673 0.276293 14.827707-2.15099 18.797112-3.606131l224.523613-137.324622L430.767907 248.221594 430.767907 248.221594zM430.767907 248.221594"  horiz-adv-x="1024" />

    
    <glyph glyph-name="shequ" unicode="&#58882;" d="M160.041882-101.074686c-3.056123 0-6.144759 0.686363-8.996779 2.064509-7.141792 3.464329-11.659147 10.696432-11.659147 18.593223l0 134.288805L80.035391 53.87185C45.863525 53.870044 18.062195 81.667761 18.062195 115.839627L18.062195 476.884836c0 34.173672 27.80133 61.973196 61.973196 61.973196l537.122707 0c34.175478 0 61.976808-27.799524 61.976808-61.973196l0-361.045208c0-34.171866-27.80133-61.97139-61.976808-61.97139L363.321045 53.868238 172.864234-96.633193C169.152453-99.541206 164.608005-101.074686 160.041882-101.074686L160.041882-101.074686zM80.035391 497.540762c-11.397245 0-20.657732-9.278549-20.657732-20.657732l0-361.045208c0-11.377376 9.258681-20.657732 20.657732-20.657732l80.006491 0c11.417113 0 20.657732-9.240619 20.657732-20.657732l0-112.289052 162.637419 128.512515c3.648563 2.859245 8.165918 4.432463 12.802484 4.432463l261.016775 0c11.397245 0 20.659538 9.280356 20.659538 20.657732L637.815829 476.884836c0 11.379183-9.2641 20.657732-20.659538 20.657732L80.035391 497.542568 80.035391 497.540762zM864.266982 198.481393c-4.578766 0-9.11599 1.526255-12.829577 4.432463l-196.041642 154.94473c-8.958849 7.09483-10.479685 20.090579-3.393886 29.047621 7.058706 8.920918 20.052648 10.44898 29.00066 3.390274l162.599488-128.508902 0 112.285439c0 11.424338 9.233394 20.659538 20.663151 20.659538l80.001072 0c11.399051 0 20.659538 9.285774 20.659538 20.659538L964.925786 776.430078c0 11.377376-9.260487 20.668569-20.659538 20.668569L407.14896 797.098647c-11.399051 0-20.657732-9.291193-20.657732-20.668569l0-247.901815c0-11.415307-9.240619-20.659538-20.657732-20.659538-11.429757 0-20.659538 9.242425-20.659538 20.659538L345.173958 776.430078c0 34.18451 27.795911 61.982227 61.973196 61.982227l537.119094 0c34.175478 0 61.973196-27.799524 61.973196-61.982227l0-361.03979c0-34.173672-27.797718-61.973196-61.973196-61.973196l-59.345147 0 0-134.279774c0-7.907629-4.520967-15.172243-11.659147-18.602254C870.409934 199.16595 867.317686 198.481393 864.266982 198.481393L864.266982 198.481393zM136.609797 374.533604 465.334514 374.533604 136.609797 374.533604ZM136.609797 371.146942c90.260399 0 180.520798 0 270.781197 0 19.313905 0 38.629616 0 57.94352 0 4.367439 0 4.367439 6.773323 0 6.773323-90.260399 0-180.520798 0-270.781197 0-19.313905 0-38.629616 0-57.94352 0C132.240552 377.920265 132.240552 371.146942 136.609797 371.146942L136.609797 371.146942zM278.177666 269.763844 551.71696 269.763844 278.177666 269.763844ZM278.177666 266.377182c87.392122 0 174.784245 0 262.176367 0 3.787642 0 7.575284 0 11.362927 0 4.367439 0 4.367439 6.773323 0 6.773323-87.392122 0-174.784245 0-262.176367 0-3.787642 0-7.575284 0-11.362927 0C273.810227 273.150505 273.810227 266.377182 278.177666 266.377182L278.177666 266.377182zM454.53874 684.5206 783.263458 684.5206 454.53874 684.5206ZM454.53874 681.133939c90.260399 0 180.520798 0 270.781197 0 19.313905 0 38.629616 0 57.94352 0 4.367439 0 4.367439 6.773323 0 6.773323-90.260399 0-180.520798 0-270.781197 0-19.313905 0-38.629616 0-57.94352 0C450.171302 687.907262 450.171302 681.133939 454.53874 681.133939L454.53874 681.133939zM618.897486 580.09041 892.434974 580.09041 618.897486 580.09041ZM618.897486 576.703748c87.392122 0 174.782439 0 262.172755 0 3.787642 0 7.575284 0 11.362927 0 4.367439 0 4.367439 6.773323 0 6.773323-87.392122 0-174.782439 0-262.172755 0-3.787642 0-7.575284 0-11.362927 0C614.530048 583.477071 614.530048 576.703748 618.897486 576.703748L618.897486 576.703748z"  horiz-adv-x="1024" />

    
    <glyph glyph-name="caidan1" unicode="&#58894;" d="M171.52 384m-99.328 0a19.4 19.4 0 1 0 198.656 0 19.4 19.4 0 1 0-198.656 0ZM506.88 384m-99.328 0a19.4 19.4 0 1 0 198.656 0 19.4 19.4 0 1 0-198.656 0ZM842.24 384m-99.328 0a19.4 19.4 0 1 0 198.656 0 19.4 19.4 0 1 0-198.656 0Z"  horiz-adv-x="1024" />

    
    <glyph glyph-name="jiantou-copy" unicode="&#58953;" d="M550.032-49.557v733.558l180.328-187.319c4.796-4.795 12.57-4.795 17.367 0l37.627 37.627c4.795 4.796 4.795 12.57 0 17.367l-227.011 235.807c-0.229 0.272-0.465 0.541-0.721 0.797l-1.259 1.259-35.009 36.367c-2.568 2.567-5.99 3.746-9.352 3.564-3.369 0.188-6.8-0.991-9.372-3.562l-36.267-37.627c-0.241-0.243-0.463-0.496-0.68-0.752l-227.050-235.852c-4.797-4.796-4.797-12.57 0-17.367l37.627-37.627c4.795-4.795 12.569-4.795 17.367 0l178.637 185.562v-731.8c0-6.783 5.498-12.28 12.28-12.28h53.213c6.781 0 12.28 5.497 12.28 12.28z"  horiz-adv-x="1024" />

    
    <glyph glyph-name="icons64x6406" unicode="&#58950;" d="M880 496c-8.848 0-16-7.168-16-16l0-416c0-12.288-4.688-24.56-14.064-33.936S828.288 16 816 16L224 16c-12.288 0-24.56 4.688-33.936 14.064S176 51.712 176 64L176 656c0 12.288 4.688 24.576 14.064 33.936C199.44 699.312 211.712 704 224 704l368 0c8.848 0 16 7.168 16 16l0 0c0 8.832-7.152 16-16 16L224 736c-20.464 0-40.96-7.808-56.56-23.424C151.808 696.944 144 676.48 144 656l0-592c0-20.464 7.808-40.96 23.44-56.56C183.04-8.192 203.536-16 224-16l592 0c20.464 0 40.96 7.808 56.56 23.44C888.192 23.04 896 43.536 896 64L896 480C896 488.832 888.848 496 880 496L880 496zM353.824 176.688c-5.664-2-12.224-0.72-16.704 3.824-4.496 4.56-5.712 11.12-3.664 16.752l52.624 143.904L838.384 793.472c15.104 15.104 35.2 23.424 56.576 23.424 21.36 0 41.456-8.32 56.56-23.424s23.44-35.2 23.44-56.576-8.336-41.456-23.44-56.576L499.168 227.968 353.824 176.688zM413.712 323.552l-38.528-105.408 106.48 37.584 447.232 447.232c9.056 9.072 14.064 21.12 14.064 33.952s-5.008 24.88-14.064 33.952c-18.128 18.128-49.76 18.112-67.888 0L413.712 323.552zM800.4272 734.248l101.811086-101.811086-22.6272-22.6272-101.811086 101.811086 22.6272 22.6272ZM506.512 238.432l-20 20.192c0.608 0.592 1.536 4.96-1.056 12.88-3.408 10.352-11.2 22.192-21.376 32.448-10.208 10.256-21.968 18.144-32.304 21.632-7.904 2.672-14.864 4.384-15.44 3.76l-18 18.112c10.64 10.512 24.816 14.816 43.664 8.448 15.12-5.104 31.024-15.568 44.752-29.424 13.76-13.84 24.096-29.824 29.072-44.992C522.064 262.592 517.104 248.976 506.512 238.432z"  horiz-adv-x="1024" />

    
    <glyph glyph-name="duihao1" unicode="&#59019;" d="M961.297424 677.919123c0 11.994172-9.148357 21.738094-20.409842 21.738094-5.818519 0-10.980076-2.654456-14.69877-6.815219l-0.059352 0.064468L389.567042 100.26482 98.125343 410.691919c-3.697205 3.927449-8.79941 6.369058-14.429641 6.369058-11.261485 0-20.409842-9.744945-20.409842-21.738094 0-6.008854 2.281973-11.44261 5.979178-15.370059l306.140469-326.093916c3.697205-3.927449 8.79941-6.347568 14.429641-6.347568 5.820566 0 10.982122 2.632967 14.688537 6.773264l0.089028-0.041956 551.052434 608.667643-0.089028 0.063445C959.094246 666.836717 961.297424 672.101627 961.297424 677.919123"  horiz-adv-x="1024" />

    
    <glyph glyph-name="cuowu" unicode="&#58936;" d="M90.217744 888.913605 7.150864 819.473069c148.075477-109.824291 286.129716-236.068554 407.130557-362.632087C228.579999 270.50511 83.146699 87.257575 6.515391 13.596925l158.246117-131.868353c56.121182 115.388007 178.382737 291.057959 341.933673 474.684116 163.741271-184.757934 286.259676-360.993774 342.815763-477.325269 0 0 154.206104 163.164127 167.972643 137.917116-59.526745 66.656119-204.136284 260.442684-399.125233 458.95897 111.663172 114.254184 236.962923 227.308029 370.776581 326.663898L952.72263 870.359017C800.911062 795.17978 656.739499 683.636335 527.017018 564.90928 396.105457 688.184931 247.958348 806.225347 90.217744 888.913605L90.217744 888.913605zM90.217744 888.913605"  horiz-adv-x="1024" />

    
    <glyph glyph-name="yanjing" unicode="&#58941;" d="M768 896C345.6 896 0 512 0 384c0-170.666667 345.6-512 768-512s768 384 768 512S1190.4 896 768 896zM768-42.666667C392.533333-42.666667 85.333333 298.666667 85.333333 384 85.333333 469.333333 392.533333 810.666667 768 810.666667s682.666667-341.333333 682.666667-426.666667S1143.466667-42.666667 768-42.666667zM768 106.666667c-153.6 0-277.333333 123.733333-277.333333 277.333333s123.733333 277.333333 277.333333 277.333333 277.333333-123.733333 277.333333-277.333333S921.6 106.666667 768 106.666667zM768 576c-106.666667 0-192-85.333333-192-192s85.333333-192 192-192 192 85.333333 192 192S874.666667 576 768 576z"  horiz-adv-x="1536" />

    
    <glyph glyph-name="fuxuankuangxuanzhong" unicode="&#58942;" d="M813.027008-63.458031 210.986295-63.458031c-80.748069 0-146.441257 65.698305-146.441257 146.453537L64.545038 685.043381c0 80.733743 65.693188 146.414651 146.441257 146.414651l602.040712 0c80.739882 0 146.427954-65.680908 146.427954-146.414651l0-602.046852C959.453938 2.240273 893.76689-63.458031 813.027008-63.458031zM210.986295 779.415748c-52.051493 0-94.398973-42.335201-94.398973-94.372368l0-602.046852c0-52.058656 42.34748-94.411253 94.398973-94.411253l602.040712 0c52.04433 0 94.384647 42.352597 94.384647 94.411253L907.411655 685.043381c0 52.037167-42.340317 94.372368-94.384647 94.372368L210.986295 779.415748zM772.394588 532.975986l-46.482661 47.675836c-6.418176 6.579859-16.819061 6.579859-23.237237 0l-240.405325-260.142855L322.337359 464.031754c-6.507204 6.668886-17.052374 6.668886-23.559579 0l-47.106878-48.316425c-6.503111-6.67298-6.503111-17.48728 0-24.164353L449.883267 188.257897c1.684362-1.725294 3.6399-3.001357 5.725398-3.834328 6.225795-3.439332 14.155395-2.466168 19.409049 2.925632l44.696991 48.366567 0.836041 0.857531c0.363274 0.372483 0.701988 0.759293 1.025353 1.155313L772.395612 509.141138C778.809695 515.723044 778.809695 526.400221 772.394588 532.975986z"  horiz-adv-x="1024" />

    
    <glyph glyph-name="27" unicode="&#58907;" d="M82.232886 813.767114l859.534228 0 0-859.534228-859.534228 0 0 859.534228Z"  horiz-adv-x="1024" />

    
    <glyph glyph-name="yanzheng" unicode="&#59494;" d="M864.92 726.027l-24.408 0c-213.097 0-306.336 94.2-306.336 94.2l-22.176 22.44-22.2-22.44c0 0-93.24-96.432-308.544-96.432l-53.256 0 0-432.912c0-112.151 37.728-278.136 372.888-403.728l11.112-4.488 11.088 4.488c335.16 125.592 372.912 291.576 372.912 403.728l0 435.144-31.08 0zM851.6 295.371c0-62.808 0-231.025-339.6-358.872-339.624 127.848-339.624 293.832-339.624 358.872l0 383.545 11.111 0c193.104 0 295.2 71.784 328.512 100.944 33.288-29.16 135.384-100.944 328.512-100.944l8.856 0 2.232-383.544zM447.632 306.603l-117.648 89.712-44.401-35.88 193.128-177.192c88.776 195.145 259.704 343.177 259.704 343.177l-19.992 22.416c-137.616-71.76-270.792-242.232-270.792-242.232z"  horiz-adv-x="1024" />

    
    <glyph glyph-name="zhuce" unicode="&#58999;" d="M752.068 239.863c-31.611 23.425-65.593 42.442-101.293 56.872 20.256 12.786 39.249 27.913 56.604 45.268 61.154 61.161 94.838 142.459 94.838 228.949 0 86.484-33.683 167.789-94.838 228.949C646.224 861.043 564.919 894.733 478.429 894.733s-167.789-33.69-228.943-94.832c-61.154-61.161-94.825-142.465-94.825-228.949 0-86.49 33.671-167.789 94.825-228.949 17.498-17.486 36.64-32.731 57.077-45.579l0.012 0c-0.112-0.05-0.212-0.081-0.311-0.131l0.168 0c-48.736-19.746-94.091-47.889-133.962-83.639C88.838 137.63 35.701 35.123 22.846-75.994c-2.154-18.625 11.205-35.495 29.843-37.643 1.32-0.143 2.633-0.224 3.94-0.224 17.019 0 31.698 12.749 33.702 30.06 10.944 94.62 56.224 181.938 127.494 245.881 71.818 64.41 164.552 99.893 261.126 99.893 84.523 0 164.975-26.518 232.666-76.68 15.071-11.18 36.342-8.005 47.522 7.072C770.301 207.431 767.138 228.708 752.068 239.863L752.068 239.863zM297.524 390.035c-48.331 48.331-74.93 112.579-74.93 180.917 0 68.332 26.599 132.586 74.93 180.898 48.325 48.325 112.573 74.937 180.905 74.937 68.338 0 132.586-26.612 180.917-74.937 48.318-48.312 74.937-112.567 74.937-180.898 0-68.338-26.618-132.586-74.937-180.917-31.555-31.536-69.894-53.84-111.733-65.506-26.207-7.302-53.554-10.358-80.738-9.157-19.466 0.847-38.844 3.903-57.625 9.157-0.044 0-0.081 0.019-0.112 0.037l0 0C367.35 336.245 329.042 358.511 297.524 390.035L297.524 390.035zM968.025 61.909l-87.38 0 0 87.387c0 18.756-15.208 33.964-33.976 33.964-18.756 0-33.957-15.208-33.957-33.964l0-87.387-87.38 0c-18.768 0-33.97-15.208-33.97-33.964 0-18.768 15.201-33.976 33.97-33.976l87.38 0 0-87.368c0-18.775 15.201-33.982 33.957-33.982 18.768 0 33.976 15.208 33.976 33.982l0 87.368 87.38 0c18.756 0 33.957 15.208 33.957 33.976C1001.983 46.701 986.781 61.909 968.025 61.909L968.025 61.909z"  horiz-adv-x="1024" />

    
    <glyph glyph-name="kongjiandanzhihuakuai" unicode="&#58899;" d="M1.216 675.712l45.824 0 0-91.712-45.824 0 0 91.712ZM47.104 721.536l45.824 0 0-91.712-45.824 0 0 91.712ZM92.928 767.36l91.712 0 0-412.672-91.712 0 0 412.672ZM322.176 721.536l91.712 0 0-45.824-91.712 0 0 45.824ZM368.064 767.36l229.248 0 0-45.824-229.248 0 0 45.824ZM551.424 721.536l91.712 0 0-137.536-91.712 0 0 137.536ZM505.6 629.824l91.712 0 0-91.712-91.712 0 0 91.712ZM459.712 584l45.824 0 0-91.712-45.824 0 0 91.712ZM505.6 538.112l45.824 0 0-45.824-45.824 0 0 45.824ZM413.888 538.112l91.712 0 0-91.712-91.712 0 0 91.712ZM368.064 492.288l91.712 0 0-91.712-91.712 0 0 91.712ZM322.176 446.464l45.824 0 0-91.712-45.824 0 0 91.712ZM368.064 400.576l275.072 0 0-45.824-275.072 0 0 45.824ZM688.96 721.536l91.712 0 0-45.824-91.712 0 0 45.824ZM734.848 767.36l229.248 0 0-45.824-229.248 0 0 45.824ZM918.208 721.536l91.712 0 0-91.712-91.712 0 0 91.712ZM826.56 629.824l137.536 0 0-45.824-137.536 0 0 45.824ZM918.208 584l91.712 0 0-137.536-91.712 0 0 137.536ZM918.208 446.464l45.824 0 0-45.824-45.824 0 0 45.824ZM688.96 446.464l91.712 0 0-45.824-91.712 0 0 45.824ZM734.848 400.576l183.424 0 0-45.824-183.424 0 0 45.824ZM16.576 136l1008.704 0 0-91.712-1008.704 0 0 91.712ZM460.032 204.8l137.536 0 0-229.248-137.536 0 0 229.248Z"  horiz-adv-x="1026" />

    
    <glyph glyph-name="caidan" unicode="&#58917;" d="M512 665.6m-76.8 0a3 3 0 1 0 153.6 0 3 3 0 1 0-153.6 0ZM512 384m-76.8 0a3 3 0 1 0 153.6 0 3 3 0 1 0-153.6 0ZM512 102.4m-76.8 0a3 3 0 1 0 153.6 0 3 3 0 1 0-153.6 0Z"  horiz-adv-x="1024" />

    
    <glyph glyph-name="switch-6" unicode="&#59001;" d="M716.8 691.2H307.2C137.813333 691.2 0 553.386667 0 384s137.813333-307.2 307.2-307.2h409.6c169.386667 0 307.2 137.813333 307.2 307.2s-137.813333 307.2-307.2 307.2z m0-580.266667H307.2C156.637867 110.933333 34.133333 233.437867 34.133333 384s122.504533 273.066667 273.066667 273.066667h409.6c150.562133 0 273.066667-122.504533 273.066667-273.066667s-122.504533-273.066667-273.066667-273.066667zM716.8 605.866667c-122.333867 0-221.866667-99.5328-221.866667-221.866667s99.5328-221.866667 221.866667-221.866667 221.866667 99.5328 221.866667 221.866667-99.5328 221.866667-221.866667 221.866667z m0-409.6c-103.509333 0-187.733333 84.224-187.733333 187.733333s84.224 187.733333 187.733333 187.733333 187.733333-84.224 187.733333-187.733333-84.224-187.733333-187.733333-187.733333zM290.133333 537.6a17.066667 17.066667 0 0 1-17.066666-17.066667v-273.066666a17.066667 17.066667 0 1 1 34.133333 0V520.533333a17.066667 17.066667 0 0 1-17.066667 17.066667z"  horiz-adv-x="1024" />

    
    <glyph glyph-name="pubu20161020" unicode="&#58892;" d="M73.142857 677.256777C73.142857 676.564846 73.136421 676.571429 73.828133 676.571429L218.743296 676.571429C219.435008 676.571429 219.428571 676.564846 219.428571 677.256777L219.428571 822.171794C219.428571 822.863726 219.435008 822.857143 218.743296 822.857143L73.828133 822.857143C73.136421 822.857143 73.142857 822.863726 73.142857 822.171794L73.142857 677.256777ZM73.828133 896 218.743296 896C259.51744 896 292.571429 863.572114 292.571429 822.171794L292.571429 677.256777C292.571429 636.48256 260.143323 603.428571 218.743296 603.428571L73.828133 603.428571C33.053989 603.428571 0 635.856457 0 677.256777L0 822.171794C0 862.946011 32.428105 896 73.828133 896ZM438.857143-55.53152C438.857143-54.583589 439.134501-54.857143 439.542418-54.857143L584.457582-54.857143C585.452544-54.857143 585.142857-55.16288 585.142857-55.53152L585.142857 238.388663C585.142857 237.440731 584.865499 237.714286 584.457582 237.714286L439.542418 237.714286C438.547456 237.714286 438.857143 238.020023 438.857143 238.388663L438.857143-55.53152ZM439.542418 310.857143 584.457582 310.857143C625.231726 310.857143 658.285714 277.871177 658.285714 238.388663L658.285714-55.53152C658.285714-95.55456 625.857609-128 584.457582-128L439.542418-128C398.768274-128 365.714286-95.014034 365.714286-55.53152L365.714286 238.388663C365.714286 278.411703 398.142391 310.857143 439.542418 310.857143ZM73.142857-55.037074C73.142857-54.754743 73.246793-54.857143 73.828133-54.857143L218.743296-54.857143C219.627959-54.857143 219.428571-55.05536 219.428571-55.037074L219.428571 457.322789C219.428571 457.040457 219.324635 457.142857 218.743296 457.142857L73.828133 457.142857C72.94347 457.142857 73.142857 457.341074 73.142857 457.322789L73.142857-55.037074ZM73.828133 530.285714 218.743296 530.285714C259.51744 530.285714 292.571429 497.641326 292.571429 457.322789L292.571429-55.037074C292.571429-95.332937 260.143323-128 218.743296-128L73.828133-128C33.053989-128 0-95.355611 0-55.037074L0 457.322789C0 497.618651 32.428105 530.285714 73.828133 530.285714ZM804.571429 310.677211C804.571429 310.959543 804.675365 310.857143 805.256704 310.857143L950.171867 310.857143C951.05653 310.857143 950.857143 310.658926 950.857143 310.677211L950.857143 823.037074C950.857143 822.754743 950.753207 822.857143 950.171867 822.857143L805.256704 822.857143C804.372041 822.857143 804.571429 823.05536 804.571429 823.037074L804.571429 310.677211ZM805.256704 896 950.171867 896C990.946011 896 1024 863.355611 1024 823.037074L1024 310.677211C1024 270.381349 991.571895 237.714286 950.171867 237.714286L805.256704 237.714286C764.48256 237.714286 731.428571 270.358674 731.428571 310.677211L731.428571 823.037074C731.428571 863.332937 763.856677 896 805.256704 896ZM804.571429-54.171794C804.571429-54.863726 804.564992-54.857143 805.256704-54.857143L950.171867-54.857143C950.863579-54.857143 950.857143-54.863726 950.857143-54.171794L950.857143 90.743223C950.857143 91.435154 950.863579 91.428571 950.171867 91.428571L805.256704 91.428571C804.564992 91.428571 804.571429 91.435154 804.571429 90.743223L804.571429-54.171794ZM805.256704 164.571429 950.171867 164.571429C990.946011 164.571429 1024 132.143543 1024 90.743223L1024-54.171794C1024-94.946011 991.571895-128 950.171867-128L805.256704-128C764.48256-128 731.428571-95.572114 731.428571-54.171794L731.428571 90.743223C731.428571 131.51744 763.856677 164.571429 805.256704 164.571429ZM438.857143 457.357166C438.857143 456.938057 438.649271 457.142857 439.542418 457.142857L584.457582 457.142857C585.2544 457.142857 585.142857 457.03168 585.142857 457.357166L585.142857 822.642834C585.142857 823.061943 585.350729 822.857143 584.457582 822.857143L439.542418 822.857143C438.7456 822.857143 438.857143 822.96832 438.857143 822.642834L438.857143 457.357166ZM439.542418 896 584.457582 896C625.231726 896 658.285714 863.972206 658.285714 822.642834L658.285714 457.357166C658.285714 416.843337 625.857609 384 584.457582 384L439.542418 384C398.768274 384 365.714286 416.027794 365.714286 457.357166L365.714286 822.642834C365.714286 863.156663 398.142391 896 439.542418 896Z"  horiz-adv-x="1024" />

    
    <glyph glyph-name="star" unicode="&#58977;" d="M749.624889-84.152889c-15.672889 0-31.246222 3.882667-45.084444 11.306667l-192.526222 103.637333L319.544889-72.817778c-31.203556-16.64-70.314667-14.392889-99.043556 5.304889-29.511111 20.337778-44.743111 55.921778-38.840889 90.695111l37.703111 225.251556L56.661333 410.908444c-25.002667 24.888889-33.464889 60.984889-22.058667 94.193778 11.349333 32.910222 40.064 56.576 74.965333 61.752889l221.326222 32.896 96.128 199.580444c15.488 32.085333 48.853333 52.807111 84.992 52.807111 36.167111 0 69.518222-20.736 84.963556-52.807111l96.156444-199.580444 221.297778-32.910222c34.872889-5.162667 63.616-28.8 74.979556-61.696 11.392-33.28 2.944-69.361778-22.030222-94.250667L804.622222 248.433778l37.745778-225.28c5.845333-34.773333-9.386667-70.357333-38.812444-90.638222C787.569778-78.392889 768.938667-84.152889 749.624889-84.152889zM512.014222 91.548444c4.636444 0 9.272889-1.137778 13.482667-3.384889l205.937778-110.862222c12.373333-6.641778 28.316444-5.802667 39.936 2.133333 11.392 7.836444 17.123556 21.006222 14.890667 34.304L746.097778 253.496889c-1.507556 9.088 1.450667 18.332444 7.964444 24.832l173.141333 172.842667c9.457778 9.429333 12.686222 23.025778 8.405333 35.484444-4.380444 12.672-15.701333 21.873778-29.525333 23.921778L669.866667 545.706667c-9.315556 1.379556-17.365333 7.296-21.447111 15.786667L545.720889 774.641778c-6.030222 12.529778-19.256889 20.608-33.706667 20.608s-27.690667-8.092444-33.763556-20.622222L375.608889 561.493333c-4.081778-8.490667-12.131556-14.407111-21.447111-15.786667L117.930667 510.577778c-13.624889-2.033778-25.201778-11.434667-29.539556-23.992889-4.266667-12.416-1.024-25.984 8.433778-35.399111L269.937778 278.328889c6.513778-6.499556 9.472-15.744 7.964444-24.832l-40.135111-239.744c-2.247111-13.312 3.484444-26.439111 14.976-34.360889 11.434667-7.836444 27.349333-8.775111 39.950222-2.062222l205.852444 110.833778C502.741333 90.410667 507.377778 91.548444 512.014222 91.548444zM200.32 439.210667c-6.840889 0-12.885333 4.963556-14.023111 11.946667-1.251556 7.751111 4.010667 15.061333 11.761778 16.312889l9.443556 1.536c7.793778 1.336889 15.061333-4.010667 16.312889-11.761778 1.251556-7.751111-4.010667-15.061333-11.761778-16.312889l-9.443556-1.536C201.856 439.267556 201.073778 439.210667 200.32 439.210667zM252.544 447.687111c-6.684444 0-12.643556 4.721778-13.937778 11.534222-1.493333 7.708444 3.555556 15.175111 11.264 16.654222l153.927111 29.696 58.055111 133.148444c3.157333 7.182222 11.548444 10.496 18.716444 7.352889 7.210667-3.143111 10.510222-11.52 7.367111-18.716444l-61.056-140.017778c-1.877333-4.295111-5.745778-7.395556-10.353778-8.277333l-161.28-31.118222C254.336 447.758222 253.44 447.687111 252.544 447.687111z"  horiz-adv-x="1024" />

    
    <glyph glyph-name="guanbi-01" unicode="&#58903;" d="M954.125-29.841L540.443 383.841 954.071 797.47c7.811 7.811 7.811 20.474 0 28.284s-20.474 7.811-28.284 0L512.159 412.125 98.53 825.754c-7.811 7.811-20.474 7.811-28.284 0s-7.811-20.474 0-28.284l413.628-413.628L70.192-29.841c-7.811-7.811-7.811-20.474 0-28.284s20.474-7.811 28.284 0l413.682 413.682L925.84-58.125c7.811-7.811 20.474-7.811 28.284 0s7.812 20.474 0.001 28.284z"  horiz-adv-x="1024" />

    
    <glyph glyph-name="anniu" unicode="&#59227;" d="M608.688 289.997c-11.469 0-20.89 9.216-20.89 20.89v80.282c0 14.541-14.541 27.443-31.334 27.443-16.179 0-29.286-12.288-29.286-27.443v-48.128c0-11.469-9.216-20.89-20.89-20.89s-20.685 9.216-20.685 20.89v48.128c0 38.093 31.744 69.018 70.861 69.018 39.526 0 72.909-31.539 72.909-69.018v-80.282c0-11.469-9.216-20.89-20.685-20.89zM710.064 274.022c-11.469 0-20.89 9.216-20.89 20.89v64.307c0 14.336-15.565 27.238-32.563 27.238-15.565 0-27.238-11.674-27.238-27.238v-48.128c0-11.469-9.216-20.89-20.89-20.89-11.469 0-20.89 9.216-20.89 20.89v48.128c0 38.707 30.31 69.018 68.813 69.018 40.141 0 74.138-31.539 74.138-69.018v-64.307c0.205-11.674-9.011-20.89-20.48-20.89zM406.141 193.741c-11.469 0-20.89 9.216-20.89 20.89v367.002c0 38.093 31.744 69.018 70.861 69.018s70.861-30.925 70.861-69.018v-238.592c0-11.469-9.216-20.89-20.89-20.89s-20.48 9.216-20.48 20.89v238.592c0 15.155-13.107 27.238-29.286 27.238s-29.286-12.288-29.286-27.238v-367.002c0-11.674-9.216-20.89-20.89-20.89zM424.778 2.253c-7.987 0-15.77 4.71-19.046 12.698-12.493 28.877-35.84 49.152-36.045 49.357-79.667 89.088-141.517 254.566-144.179 261.53-13.722 34.406 2.867 62.054 25.395 73.933 27.238 14.336 60.826 6.963 76.39-16.589l96.666-157.491c5.939-9.83 2.867-22.528-6.963-28.672-9.83-5.939-22.528-2.867-28.672 6.963l-96.051 156.672c-3.891 5.939-14.541 6.144-22.118 2.253-8.192-4.301-10.24-11.469-5.939-22.118 0.819-2.048 61.85-165.683 134.349-246.784 0.205 0 29.082-25.19 45.261-62.669 4.506-10.65-0.41-22.733-10.854-27.238-2.662-1.434-5.53-1.843-8.192-1.843zM710.883 2.253c-1.229 0-2.458 0.205-3.686 0.41-11.264 2.048-18.842 12.902-16.794 24.166 5.325 29.082 16.998 74.138 43.008 123.29 32.768 61.85 42.394 144.794 42.598 145.613-0.205 10.854-3.482 26.624-19.046 26.624-15.36 0-26.010-11.264-26.010-27.238 0-11.469-9.216-20.89-20.89-20.89s-20.89 9.216-20.89 20.89c0 39.322 29.082 69.018 67.584 69.018 36.25 0 60.621-28.262 60.621-70.451-0.614-5.939-10.65-93.798-47.309-162.816-23.552-44.442-34.202-84.992-38.912-111.206-1.638-10.445-10.445-17.408-20.275-17.408zM710.064 257.843c-11.469 0-20.89 9.216-20.89 20.89v15.974c0 11.469 9.216 20.89 20.89 20.89s20.89-9.216 20.89-20.89v-15.974c-0.205-11.469-9.421-20.89-20.89-20.89zM630.397 560.947c-11.469 0-20.89 9.216-20.89 20.89 0 84.582-68.813 153.19-153.19 153.19s-153.19-68.813-153.19-153.19c0-11.469-9.216-20.89-20.89-20.89s-20.89 9.216-20.89 20.89c0 107.52 87.45 194.765 194.97 194.765s194.765-87.45 194.765-194.765c0.205-11.469-9.216-20.89-20.685-20.89z"  horiz-adv-x="1024" />

    
    <glyph glyph-name="jinggao" unicode="&#58883;" d="M508.384-107.284c-43.146 0-86.405 5.74-128.578 17.065-263.648 70.673-420.659 342.634-349.999 606.24 34.221 127.722 116.119 234.473 230.618 300.585 75.37 43.517 160.684 66.519 246.711 66.519 43.249 0 86.623-5.744 128.911-17.070l4.69-1.258 0.016-0.044c260.761-72.614 415.509-342.917 345.326-604.992-12.096-45.106-30.832-88.683-55.684-129.518-6.242-10.22-17.103-16.31-29.060-16.31v0c-6.198 0-12.293 1.702-17.626 4.928-16.016 9.797-21.098 30.745-11.367 46.722 21.486 35.309 37.669 72.914 48.097 111.767 29.505 110.212 14.348 225.315-42.681 324.101-57.052 98.775-149.136 169.436-259.292 198.963-36.516 9.775-73.951 14.732-111.26 14.732-74.189 0-147.775-19.853-212.804-57.409-98.799-57.033-169.458-149.126-198.965-259.315-29.481-109.998-14.271-225.041 42.831-323.94 57.102-98.902 149.133-169.602 259.141-199.079 36.428-9.767 73.727-14.719 110.864-14.719 77.623 0 154.432 21.843 222.11 63.17 5.345 3.261 11.463 4.988 17.696 4.988 11.939 0 22.784-6.078 29.012-16.253 4.733-7.747 6.161-16.874 4.025-25.705-2.138-8.825-7.583-16.291-15.33-21.022-78.365-47.853-167.375-73.146-257.404-73.146zM507.942 305.398c-18.733 0-33.977 15.25-33.977 33.997v266.876c0 18.736 15.244 33.98 33.977 33.98s33.973-15.244 33.973-33.98v-266.875c0-18.746-15.241-33.998-33.973-33.998zM507.908 135.589c-18.733 0-33.977 15.244-33.977 33.977v48.521c0 18.736 15.244 33.98 33.977 33.98s33.977-15.244 33.977-33.98v-48.521c0-18.733-15.243-33.977-33.977-33.977zM507.908 242.358z"  horiz-adv-x="1024" />

    
    <glyph glyph-name="diy-com-picker" unicode="&#59683;" d="M329.3184 155.6992H146.6368a68.608 68.608 0 0 0-68.5056 68.5056V772.1984c0 37.7856 30.72 68.5056 68.5056 68.5056h639.3344c37.7856 0 68.5056-30.72 68.5056-68.5056v-319.6416a22.8352 22.8352 0 0 0-45.6704 0V772.1984c0 12.5952-10.24 22.8352-22.8352 22.8352H146.6368c-12.5952 0-22.8352-10.24-22.8352-22.8352v-547.9936c0-12.5952 10.24-22.8352 22.8352-22.8352h182.6816a22.8352 22.8352 0 0 0 0-45.6704zM671.7952-72.6528a22.8352 22.8352 0 0 0-21.1968 14.336l-77.5168 193.6896-135.3216-154.624a22.784 22.784 0 0 0-39.9872 15.0016V680.8064a22.8352 22.8352 0 0 0 38.2464 16.896l502.3232-456.6528a22.8352 22.8352 0 0 0-15.36-39.7312h-194.56l78.7968-197.0176a22.8352 22.8352 0 0 0-12.7488-29.696l-114.176-45.6704a23.1424 23.1424 0 0 0-8.4992-1.5872z"  horiz-adv-x="1024" />

    
    <glyph glyph-name="icon-test" unicode="&#58884;" d="M1024 64V640H320V704h128V768H128v-64H256V640H0v-576h256v-64H128v-64h320V0h-128v64H1024z m-64 512V128h-640V576h640zM64 128V576H256V128H64zM940.942222 222.776889l-91.733333-91.733333-91.733333 91.733333h183.466666zM940.942222 459.861333l-91.733333 91.733334-91.733333-91.733334h183.466666zM356.892444 258.389333c31.715556 3.043556 33.763556 6.826667 33.763556 29.667556v130.673778c0 14.677333-1.365333 17.066667-17.379556 18.773333l-14.677333 1.706667v5.12c21.162667 3.754667 38.229333 9.898667 48.782222 16.725333v-172.970667c0-22.840889 2.389333-26.624 34.104889-29.667555v-4.778667h-84.593778v4.750222zM616.248889 290.787556c-3.754667-10.552889-6.513778-21.134222-10.581333-37.176889h-119.751112v5.461333c18.773333 18.744889 37.859556 37.859556 54.243556 57.315556 17.749333 20.451556 45.710222 47.047111 45.710222 81.180444 0 31.061333-16.042667 47.416889-43.008 47.416889-25.571556 0-39.907556-20.48-47.416889-31.744l-5.12 4.096 18.403556 25.571555a60.302222 60.302222 0 0 0 42.638222 18.090667c26.936889 0 52.878222-19.114667 52.878222-52.195555 0-30.037333-16.014222-51.512889-43.320889-80.839112l-52.849777-57.656888h70.257777c17.095111 0 22.186667 1.706667 31.061334 22.499555l6.855111-2.019555zM669.525333 443.960889c9.898667 10.24 25.571556 17.066667 40.248889 17.066667 28.672 0 46.762667-18.403556 46.762667-40.931556 0-15.36-12.629333-25.571556-34.474667-36.835556v-0.682666c30.350222-5.12 47.445333-27.619556 47.786667-52.167111 0-55.267556-62.094222-80.526222-86.300445-80.526223-20.138667 0.341333-34.816 12.288-34.816 19.086223 0 3.783111 7.509333 11.264 11.264 11.264 1.735111 0 3.754667-0.654222 5.802667-2.048 7.822222-7.509333 16.725333-12.942222 36.494222-12.942223 24.234667 0 48.440889 16.355556 48.440889 52.849778 0 46.762667-37.518222 50.147556-47.416889 50.147556-11.264 0-20.792889-3.726222-24.917333-5.432889l-2.389333 5.432889c35.84 11.946667 61.411556 25.6 61.411555 48.469333 0 18.773333-12.970667 30.008889-32.739555 30.008889-23.182222 0-36.152889-16.384-42.296889-27.619556l-5.432889 3.413334 12.572444 21.447111z"  horiz-adv-x="1024" />

    
    <glyph glyph-name="xuanxiangqia-" unicode="&#58983;" d="M744.727273 757.108364v-139.636364h-46.545455v139.636364H418.909091v-139.636364H372.363636v186.181818H0v-837.818182h1024v791.272728h-279.272727z m232.727272-744.727273H46.545455v744.727273h279.272727v-186.181819h651.636363v-558.545454zM139.636364 198.562909h139.636363v-139.636364H139.636364zM325.818182 338.199273h139.636363v-279.272728H325.818182zM512 524.381091h139.636364v-465.454546h-139.636364zM698.181818 291.653818h139.636364v-232.727273h-139.636364z"  horiz-adv-x="1024" />

    
    <glyph glyph-name="msg" unicode="&#58891;" d="M611.7 487h-202c-14 0-25.2 11.3-25.2 25.2 0 14 11.3 25.2 25.2 25.2h202c14 0 25.2-11.3 25.2-25.2 0-13.9-11.3-25.2-25.2-25.2zM556.7 359.8H404.2c-13.8 0-25 11.1-25 25s11.3 25 25 25h152.4c13.8 0 25-11.1 25-25s-11.1-25-24.9-25zM507.9 830.8h30.6v-50.1h-30.6zM509.9 830.8c-246 0-446.2-171.4-446.2-382.3 0-116 62.7-225.1 172.1-299.4 0.3-0.2 0.5-0.3 0.8-0.5 4.6-5.6 11.6-9.2 19.4-9.2 13.8 0 25 11.2 25 25 0 12-8.4 22-19.6 24.4-91.2 61-149.6 154.9-149.6 260.2 0 183.9 178.2 333 398 333s398-149.1 398-333-178.2-333-398-333l-25.3-1.6s-66.9-67.7-137.6-112.3c17.3 57.9 28.4 98.2 28.4 108.6-3.8 17.5-14.8 19-26.8 19-17.6 0-31.9-14.2-31.9-31.9 0-5.8 1.5-11.1 4.3-15.9-3.3-18.2-17.1-60.6-32.9-99.3-5-12-2.1-25.9 7.4-34.9 6-5.8 14-8.9 22.1-8.9 4.3 0 8.7 0.9 13 2.7 36.3 16.3 76.1 30.6 186.9 125 242.4 3.6 438.5 173.3 438.5 382.1 0 210.8-200 382.2-446 382.2z"  horiz-adv-x="1024" />

    
    <glyph glyph-name="charuhang" unicode="&#59118;" d="M552.96 609.28v122.88h-409.6v40.96h450.56v-204.8h-450.56v40.96h409.6z m0-573.44v122.88h-409.6v40.96h450.56v-204.8h-450.56v40.96h409.6z m-292.864 415.744l-67.584-67.584 67.584-67.584c8.192-8.192 8.192-20.48 0-28.672-8.192-8.192-20.48-8.192-28.672 0l-96.256 96.256 96.256 96.256c8.192 8.192 20.48 8.192 28.672 0 8.192-8.192 8.192-20.48 0-28.672z m129.024 34.816h512v-204.8h-512v204.8z m40.96-163.84h430.08v122.88h-430.08v-122.88z"  horiz-adv-x="1024" />

    
    <glyph glyph-name="jindu" unicode="&#58901;" d="M1013.76 35.84H694.25152c-9.78944-58.0608-59.96544-102.4-120.81152-102.4s-111.02208 44.3392-120.81152 102.4H10.24a10.24 10.24 0 0 0-10.24 10.24v20.48a10.24 10.24 0 0 0 10.24 10.24h442.38848c9.78944 58.0608 59.96544 102.4 120.81152 102.4s111.02208-44.3392 120.81152-102.4H1013.76a10.24 10.24 0 0 0 10.24-10.24v-20.48a10.24 10.24 0 0 0-10.24-10.24zM573.44 138.24a81.92 81.92 0 1 1 0-163.84 81.92 81.92 0 0 1 0 163.84z m440.32 225.28h-155.66848c-9.78944-58.0608-59.96544-102.4-120.81152-102.4s-111.02208 44.3392-120.81152 102.4H10.24a10.24 10.24 0 0 0-10.24 10.24v20.48a10.24 10.24 0 0 0 10.24 10.24h606.22848c9.78944 58.0608 59.96544 102.4 120.81152 102.4s111.02208-44.3392 120.81152-102.4H1013.76a10.24 10.24 0 0 0 10.24-10.24v-20.48a10.24 10.24 0 0 0-10.24-10.24zM737.28 465.92a81.92 81.92 0 1 1 0-163.84 81.92 81.92 0 0 1 0 163.84z m276.48 225.28H407.53152c-9.78944-58.0608-59.96544-102.4-120.81152-102.4s-111.02208 44.3392-120.81152 102.4H10.24a10.24 10.24 0 0 0-10.24 10.24v20.48A10.24 10.24 0 0 0 10.24 732.16h155.66848C175.69792 790.2208 225.87392 834.56 286.72 834.56s111.02208-44.3392 120.81152-102.4H1013.76a10.24 10.24 0 0 0 10.24-10.24v-20.48a10.24 10.24 0 0 0-10.24-10.24zM286.72 793.6a81.92 81.92 0 1 1 0-163.84 81.92 81.92 0 0 1 0 163.84z"  horiz-adv-x="1024" />

    
    <glyph glyph-name="lunborongqi" unicode="&#59033;" d="M528-60.8c0-22.4-19.2-41.6-41.6-41.6s-38.4 19.2-38.4 41.6c0 22.4 19.2 41.6 41.6 41.6s38.4-19.2 38.4-41.6z m-144 0c0-35.2-28.8-67.2-67.2-67.2s-67.2 28.8-67.2 67.2 28.8 67.2 67.2 67.2 67.2-32 67.2-67.2z m-25.6 0c0 22.4-19.2 41.6-41.6 41.6-22.4 0-41.6-19.2-41.6-41.6 0-22.4 19.2-41.6 41.6-41.6 22.4 0 41.6 16 41.6 41.6z m294.4 41.6c-22.4 0-41.6-19.2-41.6-41.6 0-22.4 19.2-41.6 41.6-41.6 22.4 0 41.6 19.2 41.6 41.6s-19.2 41.6-41.6 41.6zM995.2 816v-620.8c0-22.4-6.4-41.6-22.4-57.6s-35.2-22.4-57.6-22.4H108.8c-22.4 0-41.6 6.4-57.6 22.4s-22.4 35.2-22.4 57.6V816c0 22.4 6.4 41.6 22.4 57.6S86.4 896 108.8 896h809.6c22.4 0 41.6-6.4 57.6-22.4 9.6-16 19.2-35.2 19.2-57.6z m-64 0c0 3.2-3.2 9.6-6.4 12.8s-6.4 6.4-12.8 6.4H102.4c-3.2 0-9.6 0-12.8-6.4 0-3.2-6.4-6.4-6.4-12.8v-620.8c0-3.2 3.2-9.6 6.4-12.8s6.4-6.4 12.8-6.4h809.6c3.2 0 9.6 3.2 12.8 6.4s6.4 6.4 6.4 12.8V816zM396.8 422.4l-80 80-163.2-163.2v-99.2h713.6v227.2l-211.2 211.2-259.2-256z m-147.2 147.2c25.6 0 51.2 9.6 70.4 28.8s28.8 41.6 28.8 70.4c0 28.8-9.6 51.2-28.8 70.4S281.6 768 249.6 768c-25.6 0-51.2-9.6-70.4-28.8s-28.8-41.6-28.8-70.4c0-25.6 9.6-51.2 28.8-70.4 19.2-19.2 44.8-28.8 70.4-28.8z"  horiz-adv-x="1024" />

    
    <glyph glyph-name="portal-icon-kelongyunyingpan" unicode="&#59100;" d="M925.056 152.192a117.888 117.888 0 0 1-53.248 30.848c-1.92 125.824-105.088 227.776-232.256 228.096-98.432 0-186.24-63.296-218.688-153.984-88.32-0.512-156.736-68.48-156.928-154.048a153.024 153.024 0 0 1 45.184-109.44 154.432 154.432 0 0 1 109.376-45.376l421.12-0.896c66.24 0 120.256 53.76 120.448 119.872 0 32.064-12.352 62.208-35.008 84.928z m-85.504-140.736l-0.128-32 0.128 32-420.992 0.896a90.56 90.56 0 0 0-90.688 90.624 90.816 90.816 0 0 0 109.632 88.256l30.976-6.464 6.784 30.848a169.024 169.024 0 0 0 164.48 131.52 168.32 168.32 0 0 0 168-168.064c0-4.16-0.64-8.192-1.216-12.16l-4.992-43.648h35.776l5.376 0.32a56.32 56.32 0 0 0 53.248-56.128 56.256 56.256 0 0 0-56.384-56zM312.448 547.648l6.784 30.976a228.48 228.48 0 0 0 222.208 177.92h0.384a226.56 226.56 0 0 0 160.832-66.816 224.384 224.384 0 0 0 66.304-160.64c0.064-5.824-0.896-11.264-1.664-16.832l-5.44-45.952h35.904l6.72 0.512a82.56 82.56 0 0 0 78.848-82.304l64-0.128a146.688 146.688 0 0 1-114.368 142.912v1.856a288.448 288.448 0 0 1-84.992 205.824 290.56 290.56 0 0 1-206.016 85.568H541.44a293.44 293.44 0 0 1-276.928-199.808 111.36 111.36 0 0 1-8 0.256h-1.216a190.72 190.72 0 0 1-134.976-55.488A188.864 188.864 0 0 1 64 430.784a189.312 189.312 0 0 1 55.744-135.104 190.592 190.592 0 0 1 135.04-56.192l0.192 64A126.976 126.976 0 0 0 128 430.656a127.04 127.04 0 0 0 127.552 126.336h0.192c7.68 0.576 16.832-0.896 25.6-2.752l31.104-6.592z"  horiz-adv-x="1024" />

    


  </font>
</defs>
</svg>
